<?xml version="1.0" encoding="UTF-8" standalone="no"?><svg xmlns="http://www.w3.org/2000/svg" xmlns:xlink="http://www.w3.org/1999/xlink" contentScriptType="application/ecmascript" contentStyleType="text/css" height="579px" preserveAspectRatio="none" style="width:1810px;height:579px;background:#FFFFFF;" version="1.1" viewBox="0 0 1810 579" width="1810px" zoomAndPan="magnify"><defs><filter height="300%" id="fc84j3zv2wk9x" width="300%" x="-1" y="-1"><feGaussianBlur result="blurOut" stdDeviation="2.0"/><feColorMatrix in="blurOut" result="blurOut2" type="matrix" values="0 0 0 0 0 0 0 0 0 0 0 0 0 0 0 0 0 0 .4 0"/><feOffset dx="4.0" dy="4.0" in="blurOut2" result="blurOut3"/><feBlend in="SourceGraphic" in2="blurOut3" mode="normal"/></filter></defs><g><rect fill="#FFC0CB" filter="url(#fc84j3zv2wk9x)" height="69.4648" rx="12.5" ry="12.5" style="stroke:#A80036;stroke-width:1.5;" width="118" x="860" y="254.1973"/><text fill="#000000" font-family="sans-serif" font-size="14" lengthAdjust="spacing" textLength="98" x="870" y="277.7324">ソリューション</text><text fill="#000000" font-family="sans-serif" font-size="14" lengthAdjust="spacing" textLength="84" x="870" y="294.2207">アーキテクト</text><text fill="#000000" font-family="sans-serif" font-size="14" lengthAdjust="spacing" textLength="84" x="870" y="310.709">アソシエイト</text><rect fill="#FFA500" filter="url(#fc84j3zv2wk9x)" height="52.9766" rx="12.5" ry="12.5" style="stroke:#A80036;stroke-width:1.5;" width="233" x="1028" y="152.9766"/><text fill="#000000" font-family="sans-serif" font-size="14" lengthAdjust="spacing" textLength="213" x="1038" y="176.5117">3. セキュアなアプリケーションと</text><text fill="#000000" font-family="sans-serif" font-size="14" lengthAdjust="spacing" textLength="181" x="1038" y="193">アーキテクチャの設計 [24%]</text><rect fill="#FEFECE" filter="url(#fc84j3zv2wk9x)" height="36.4883" rx="12.5" ry="12.5" style="stroke:#A80036;stroke-width:1.5;" width="200" x="1311" y="20"/><text fill="#000000" font-family="sans-serif" font-size="14" lengthAdjust="spacing" textLength="180" x="1321" y="43.5352">3.1 セキュアなアクセス設計</text><rect fill="#FEFECE" filter="url(#fc84j3zv2wk9x)" height="36.4883" rx="12.5" ry="12.5" style="stroke:#A80036;stroke-width:1.5;" width="46" x="1561" y="20"/><text fill="#000000" font-family="sans-serif" font-size="14" lengthAdjust="spacing" textLength="26" x="1571" y="43.5352">IAM</text><path d="M1511,38.2441 L1521,38.2441 C1536,38.2441 1536,38.2441 1551,38.2441 L1561,38.2441 " fill="none" style="stroke:#A80036;stroke-width:1.0;"/><path d="M1261,179.4648 L1271,179.4648 C1286,179.4648 1286,38.2441 1301,38.2441 L1311,38.2441 " fill="none" style="stroke:#A80036;stroke-width:1.0;"/><rect fill="#FEFECE" filter="url(#fc84j3zv2wk9x)" height="36.4883" rx="12.5" ry="12.5" style="stroke:#A80036;stroke-width:1.5;" width="256" x="1311" y="189.4648"/><text fill="#000000" font-family="sans-serif" font-size="14" lengthAdjust="spacing" textLength="236" x="1321" y="213">3.2 セキュアなアプリケーション階層</text><rect fill="#FEFECE" filter="url(#fc84j3zv2wk9x)" height="36.4883" rx="12.5" ry="12.5" style="stroke:#A80036;stroke-width:1.5;" width="160" x="1617" y="76.4883"/><text fill="#000000" font-family="sans-serif" font-size="14" lengthAdjust="spacing" textLength="140" x="1627" y="100.0234">セキュリティグループ</text><path d="M1567,207.709 L1577,207.709 C1592,207.709 1592,94.7324 1607,94.7324 L1617,94.7324 " fill="none" style="stroke:#A80036;stroke-width:1.0;"/><rect fill="#FEFECE" filter="url(#fc84j3zv2wk9x)" height="36.4883" rx="12.5" ry="12.5" style="stroke:#A80036;stroke-width:1.5;" width="131" x="1617" y="132.9766"/><text fill="#000000" font-family="sans-serif" font-size="14" lengthAdjust="spacing" textLength="111" x="1627" y="156.5117">ネットワークACL</text><path d="M1567,207.709 L1577,207.709 C1592,207.709 1592,151.2207 1607,151.2207 L1617,151.2207 " fill="none" style="stroke:#A80036;stroke-width:1.0;"/><rect fill="#FEFECE" filter="url(#fc84j3zv2wk9x)" height="36.4883" rx="12.5" ry="12.5" style="stroke:#A80036;stroke-width:1.5;" width="90" x="1617" y="189.4648"/><text fill="#000000" font-family="sans-serif" font-size="14" lengthAdjust="spacing" textLength="70" x="1627" y="213">サブネット</text><path d="M1567,207.709 L1577,207.709 C1592,207.709 1592,207.709 1607,207.709 L1617,207.709 " fill="none" style="stroke:#A80036;stroke-width:1.0;"/><rect fill="#FEFECE" filter="url(#fc84j3zv2wk9x)" height="36.4883" rx="12.5" ry="12.5" style="stroke:#A80036;stroke-width:1.5;" width="174" x="1617" y="245.9531"/><text fill="#000000" font-family="sans-serif" font-size="14" lengthAdjust="spacing" textLength="154" x="1627" y="269.4883">ルーティングメカニズム</text><path d="M1567,207.709 L1577,207.709 C1592,207.709 1592,264.1973 1607,264.1973 L1617,264.1973 " fill="none" style="stroke:#A80036;stroke-width:1.0;"/><rect fill="#FEFECE" filter="url(#fc84j3zv2wk9x)" height="36.4883" rx="12.5" ry="12.5" style="stroke:#A80036;stroke-width:1.5;" width="146" x="1617" y="302.4414"/><text fill="#000000" font-family="sans-serif" font-size="14" lengthAdjust="spacing" textLength="126" x="1627" y="325.9766">外部脅威からの保護</text><path d="M1567,207.709 L1577,207.709 C1592,207.709 1592,320.6855 1607,320.6855 L1617,320.6855 " fill="none" style="stroke:#A80036;stroke-width:1.0;"/><path d="M1261,179.4648 L1271,179.4648 C1286,179.4648 1286,207.709 1301,207.709 L1311,207.709 " fill="none" style="stroke:#A80036;stroke-width:1.0;"/><rect fill="#FEFECE" filter="url(#fc84j3zv2wk9x)" height="36.4883" rx="12.5" ry="12.5" style="stroke:#A80036;stroke-width:1.5;" width="172" x="1311" y="245.9531"/><text fill="#000000" font-family="sans-serif" font-size="14" lengthAdjust="spacing" textLength="152" x="1321" y="269.4883">3.3 データセキュリティ</text><path d="M1261,179.4648 L1271,179.4648 C1286,179.4648 1286,264.1973 1301,264.1973 L1311,264.1973 " fill="none" style="stroke:#A80036;stroke-width:1.0;"/><path d="M978,288.9297 L988,288.9297 C1003,288.9297 1003,179.4648 1018,179.4648 L1028,179.4648 " fill="none" style="stroke:#A80036;stroke-width:1.0;"/><rect fill="#FFA500" filter="url(#fc84j3zv2wk9x)" height="52.9766" rx="12.5" ry="12.5" style="stroke:#A80036;stroke-width:1.5;" width="201" x="1028" y="431.9063"/><text fill="#000000" font-family="sans-serif" font-size="14" lengthAdjust="spacing" textLength="143" x="1038" y="455.4414">4. コストを最適化した</text><text fill="#000000" font-family="sans-serif" font-size="14" lengthAdjust="spacing" textLength="181" x="1038" y="471.9297">アーキテクチャの設計 [18%]</text><rect fill="#FEFECE" filter="url(#fc84j3zv2wk9x)" height="52.9766" rx="12.5" ry="12.5" style="stroke:#A80036;stroke-width:1.5;" width="188" x="1279" y="358.9297"/><text fill="#000000" font-family="sans-serif" font-size="14" lengthAdjust="spacing" textLength="138" x="1289" y="382.4648">4.1 コスト効率の高い</text><text fill="#000000" font-family="sans-serif" font-size="14" lengthAdjust="spacing" textLength="168" x="1289" y="398.9531">ストレージソリューション</text><path d="M1229,458.3945 L1239,458.3945 C1254,458.3945 1254,385.418 1269,385.418 L1279,385.418 " fill="none" style="stroke:#A80036;stroke-width:1.0;"/><rect fill="#FEFECE" filter="url(#fc84j3zv2wk9x)" height="52.9766" rx="12.5" ry="12.5" style="stroke:#A80036;stroke-width:1.5;" width="293" x="1279" y="431.9063"/><text fill="#000000" font-family="sans-serif" font-size="14" lengthAdjust="spacing" textLength="138" x="1289" y="455.4414">4.2 費用対効果の高い</text><text fill="#000000" font-family="sans-serif" font-size="14" lengthAdjust="spacing" textLength="273" x="1289" y="471.9297">コンピューティング/データベースサービス</text><path d="M1229,458.3945 L1239,458.3945 C1254,458.3945 1254,458.3945 1269,458.3945 L1279,458.3945 " fill="none" style="stroke:#A80036;stroke-width:1.0;"/><rect fill="#FEFECE" filter="url(#fc84j3zv2wk9x)" height="52.9766" rx="12.5" ry="12.5" style="stroke:#A80036;stroke-width:1.5;" width="202" x="1279" y="504.8828"/><text fill="#000000" font-family="sans-serif" font-size="14" lengthAdjust="spacing" textLength="152" x="1289" y="528.418">4.3 コストを最適化した</text><text fill="#000000" font-family="sans-serif" font-size="14" lengthAdjust="spacing" textLength="182" x="1289" y="544.9063">ネットワークアーキテクチャ</text><path d="M1229,458.3945 L1239,458.3945 C1254,458.3945 1254,531.3711 1269,531.3711 L1279,531.3711 " fill="none" style="stroke:#A80036;stroke-width:1.0;"/><path d="M978,288.9297 L988,288.9297 C1003,288.9297 1003,458.3945 1018,458.3945 L1028,458.3945 " fill="none" style="stroke:#A80036;stroke-width:1.0;"/><rect fill="#FFA500" filter="url(#fc84j3zv2wk9x)" height="52.9766" rx="12.5" ry="12.5" style="stroke:#A80036;stroke-width:1.5;" width="201" x="609" y="116.4883"/><text fill="#000000" font-family="sans-serif" font-size="14" lengthAdjust="spacing" textLength="115" x="619" y="140.0234">1. 弾力性に優れた</text><text fill="#000000" font-family="sans-serif" font-size="14" lengthAdjust="spacing" textLength="181" x="619" y="156.5117">アーキテクチャの設計 [30%]</text><rect fill="#FEFECE" filter="url(#fc84j3zv2wk9x)" height="36.4883" rx="12.5" ry="12.5" style="stroke:#A80036;stroke-width:1.5;" width="270" x="289" y="40"/><text fill="#000000" font-family="sans-serif" font-size="14" lengthAdjust="spacing" textLength="250" x="299" y="63.5352">1.1 多層アーキテクチャソリューション</text><path d="M609,142.9766 L599,142.9766 C584,142.9766 584,58.2441 569,58.2441 L559,58.2441 " fill="none" style="stroke:#A80036;stroke-width:1.0;"/><rect fill="#FEFECE" filter="url(#fc84j3zv2wk9x)" height="36.4883" rx="12.5" ry="12.5" style="stroke:#A80036;stroke-width:1.5;" width="347" x="212" y="96.4883"/><text fill="#000000" font-family="sans-serif" font-size="14" lengthAdjust="spacing" textLength="327" x="222" y="120.0234">1.2 高可用性/フォールトトレラントアーキテクチャ</text><path d="M609,142.9766 L599,142.9766 C584,142.9766 584,114.7324 569,114.7324 L559,114.7324 " fill="none" style="stroke:#A80036;stroke-width:1.0;"/><rect fill="#FEFECE" filter="url(#fc84j3zv2wk9x)" height="36.4883" rx="12.5" ry="12.5" style="stroke:#A80036;stroke-width:1.5;" width="214" x="345" y="152.9766"/><text fill="#000000" font-family="sans-serif" font-size="14" lengthAdjust="spacing" textLength="194" x="355" y="176.5117">1.3 デカップリングメカニズム</text><rect fill="#FEFECE" filter="url(#fc84j3zv2wk9x)" height="36.4883" rx="12.5" ry="12.5" style="stroke:#A80036;stroke-width:1.5;" width="188" x="107" y="152.9766"/><text fill="#000000" font-family="sans-serif" font-size="14" lengthAdjust="spacing" textLength="168" x="117" y="176.5117">コンポーネントの疎結合化</text><rect fill="#FEFECE" filter="url(#fc84j3zv2wk9x)" height="36.4883" rx="12.5" ry="12.5" style="stroke:#A80036;stroke-width:1.5;" width="47" x="10" y="152.9766"/><text fill="#000000" font-family="sans-serif" font-size="14" lengthAdjust="spacing" textLength="27" x="20" y="176.5117">SQS</text><path d="M107,171.2207 L97,171.2207 C82,171.2207 82,171.2207 67,171.2207 L57,171.2207 " fill="none" style="stroke:#A80036;stroke-width:1.0;"/><path d="M345,171.2207 L335,171.2207 C320,171.2207 320,171.2207 305,171.2207 L295,171.2207 " fill="none" style="stroke:#A80036;stroke-width:1.0;"/><path d="M609,142.9766 L599,142.9766 C584,142.9766 584,171.2207 569,171.2207 L559,171.2207 " fill="none" style="stroke:#A80036;stroke-width:1.0;"/><rect fill="#FEFECE" filter="url(#fc84j3zv2wk9x)" height="36.4883" rx="12.5" ry="12.5" style="stroke:#A80036;stroke-width:1.5;" width="214" x="345" y="209.4648"/><text fill="#000000" font-family="sans-serif" font-size="14" lengthAdjust="spacing" textLength="194" x="355" y="233">1.4 耐障害性の高いストレージ</text><path d="M609,142.9766 L599,142.9766 C584,142.9766 584,227.709 569,227.709 L559,227.709 " fill="none" style="stroke:#A80036;stroke-width:1.0;"/><path d="M860,288.9297 L850,288.9297 C835,288.9297 835,142.9766 820,142.9766 L810,142.9766 " fill="none" style="stroke:#A80036;stroke-width:1.0;"/><rect fill="#FFA500" filter="url(#fc84j3zv2wk9x)" height="52.9766" rx="12.5" ry="12.5" style="stroke:#A80036;stroke-width:1.5;" width="177" x="633" y="375.418"/><text fill="#000000" font-family="sans-serif" font-size="14" lengthAdjust="spacing" textLength="157" x="643" y="398.9531">2. 高性能アーキテクチャ</text><text fill="#000000" font-family="sans-serif" font-size="14" lengthAdjust="spacing" textLength="83" x="643" y="415.4414">の設計 [28%]</text><rect fill="#FEFECE" filter="url(#fc84j3zv2wk9x)" height="52.9766" rx="12.5" ry="12.5" style="stroke:#A80036;stroke-width:1.5;" width="244" x="339" y="265.9531"/><text fill="#000000" font-family="sans-serif" font-size="14" lengthAdjust="spacing" textLength="194" x="349" y="289.4883">2.1 伸縮自在でスケーラブルな</text><text fill="#000000" font-family="sans-serif" font-size="14" lengthAdjust="spacing" textLength="224" x="349" y="305.9766">コンピューティングソリューション</text><path d="M633,401.9063 L623,401.9063 C608,401.9063 608,292.4414 593,292.4414 L583,292.4414 " fill="none" style="stroke:#A80036;stroke-width:1.0;"/><rect fill="#FEFECE" filter="url(#fc84j3zv2wk9x)" height="52.9766" rx="12.5" ry="12.5" style="stroke:#A80036;stroke-width:1.5;" width="284" x="299" y="338.9297"/><text fill="#000000" font-family="sans-serif" font-size="14" lengthAdjust="spacing" textLength="264" x="309" y="362.4648">2.2 ハイパフォーマンスでスケーラブルな</text><text fill="#000000" font-family="sans-serif" font-size="14" lengthAdjust="spacing" textLength="168" x="309" y="378.9531">ストレージソリューション</text><path d="M633,401.9063 L623,401.9063 C608,401.9063 608,365.418 593,365.418 L583,365.418 " fill="none" style="stroke:#A80036;stroke-width:1.0;"/><rect fill="#FEFECE" filter="url(#fc84j3zv2wk9x)" height="52.9766" rx="12.5" ry="12.5" style="stroke:#A80036;stroke-width:1.5;" width="202" x="381" y="411.9063"/><text fill="#000000" font-family="sans-serif" font-size="14" lengthAdjust="spacing" textLength="166" x="391" y="435.4414">2.3 ハイパフォーマンスな</text><text fill="#000000" font-family="sans-serif" font-size="14" lengthAdjust="spacing" textLength="182" x="391" y="451.9297">ネットワークソリューション</text><path d="M633,401.9063 L623,401.9063 C608,401.9063 608,438.3945 593,438.3945 L583,438.3945 " fill="none" style="stroke:#A80036;stroke-width:1.0;"/><rect fill="#FEFECE" filter="url(#fc84j3zv2wk9x)" height="52.9766" rx="12.5" ry="12.5" style="stroke:#A80036;stroke-width:1.5;" width="202" x="381" y="484.8828"/><text fill="#000000" font-family="sans-serif" font-size="14" lengthAdjust="spacing" textLength="166" x="391" y="508.418">2.4 ハイパフォーマンスな</text><text fill="#000000" font-family="sans-serif" font-size="14" lengthAdjust="spacing" textLength="182" x="391" y="524.9063">データベースソリューション</text><path d="M633,401.9063 L623,401.9063 C608,401.9063 608,511.3711 593,511.3711 L583,511.3711 " fill="none" style="stroke:#A80036;stroke-width:1.0;"/><path d="M860,288.9297 L850,288.9297 C835,288.9297 835,401.9063 820,401.9063 L810,401.9063 " fill="none" style="stroke:#A80036;stroke-width:1.0;"/><!--MD5=[ea243faa8added069defd7d62bca3701]
@startmindmap
-[#Pink] ソリューション\nアーキテクト\nアソシエイト

- -[#Orange] 1. 弾力性に優れた\nアーキテクチャの設計 [30%]
- - - 1.1 多層アーキテクチャソリューション
- - - 1.2 高可用性/フォールトトレラントアーキテクチャ
- - - 1.3 デカップリングメカニズム
- - - - コンポーネントの疎結合化
- - - - - SQS
- - - 1.4 耐障害性の高いストレージ

- -[#Orange] 2. 高性能アーキテクチャ\nの設計 [28%]
- - - 2.1 伸縮自在でスケーラブルな\nコンピューティングソリューション
- - - 2.2 ハイパフォーマンスでスケーラブルな\nストレージソリューション
- - - 2.3 ハイパフォーマンスな\nネットワークソリューション
- - - 2.4 ハイパフォーマンスな\nデータベースソリューション

++[#Orange] 3. セキュアなアプリケーションと\nアーキテクチャの設計 [24%]
+++ 3.1 セキュアなアクセス設計
++++ IAM
+++ 3.2 セキュアなアプリケーション階層
++++ セキュリティグループ
++++ ネットワークACL
++++ サブネット
++++ ルーティングメカニズム
++++ 外部脅威からの保護
+++ 3.3 データセキュリティ

++[#Orange] 4. コストを最適化した\nアーキテクチャの設計 [18%]
+++ 4.1 コスト効率の高い\nストレージソリューション
+++ 4.2 費用対効果の高い\nコンピューティング/データベースサービス
+++ 4.3 コストを最適化した\nネットワークアーキテクチャ

@endmindmap

PlantUML version 1.2022.0(Wed Jan 12 01:16:42 JST 2022)
(GPL source distribution)
Java Runtime: OpenJDK Runtime Environment
JVM: OpenJDK 64-Bit Server VM
Default Encoding: UTF-8
Language: ja
Country: JP
--></g></svg>