<?xml version="1.0" encoding="UTF-8" standalone="no"?><svg xmlns="http://www.w3.org/2000/svg" xmlns:xlink="http://www.w3.org/1999/xlink" contentScriptType="application/ecmascript" contentStyleType="text/css" height="539px" preserveAspectRatio="none" style="width:1389px;height:539px;background:#FFFFFF;" version="1.1" viewBox="0 0 1389 539" width="1389px" zoomAndPan="magnify"><defs><filter height="300%" id="fx1jewnfu6ph6" width="300%" x="-1" y="-1"><feGaussianBlur result="blurOut" stdDeviation="2.0"/><feColorMatrix in="blurOut" result="blurOut2" type="matrix" values="0 0 0 0 0 0 0 0 0 0 0 0 0 0 0 0 0 0 .4 0"/><feOffset dx="4.0" dy="4.0" in="blurOut2" result="blurOut3"/><feBlend in="SourceGraphic" in2="blurOut3" mode="normal"/></filter></defs><g><rect fill="#FFC0CB" filter="url(#fx1jewnfu6ph6)" height="69.4648" rx="12.5" ry="12.5" style="stroke:#A80036;stroke-width:1.5;" width="118" x="658" y="234.1973"/><text fill="#000000" font-family="sans-serif" font-size="14" lengthAdjust="spacing" textLength="98" x="668" y="257.7324">ソリューション</text><text fill="#000000" font-family="sans-serif" font-size="14" lengthAdjust="spacing" textLength="84" x="668" y="274.2207">アーキテクト</text><text fill="#000000" font-family="sans-serif" font-size="14" lengthAdjust="spacing" textLength="84" x="668" y="290.709">アソシエイト</text><rect fill="#FFA500" filter="url(#fx1jewnfu6ph6)" height="52.9766" rx="12.5" ry="12.5" style="stroke:#A80036;stroke-width:1.5;" width="233" x="826" y="132.9766"/><text fill="#000000" font-family="sans-serif" font-size="14" lengthAdjust="spacing" textLength="213" x="836" y="156.5117">3. セキュアなアプリケーションと</text><text fill="#000000" font-family="sans-serif" font-size="14" lengthAdjust="spacing" textLength="181" x="836" y="173">アーキテクチャの設計 [24%]</text><rect fill="#FEFECE" filter="url(#fx1jewnfu6ph6)" height="36.4883" rx="12.5" ry="12.5" style="stroke:#A80036;stroke-width:1.5;" width="200" x="1109" y="84.7324"/><text fill="#000000" font-family="sans-serif" font-size="14" lengthAdjust="spacing" textLength="180" x="1119" y="108.2676">3.1 セキュアなアクセス設計</text><path d="M1059,159.4648 L1069,159.4648 C1084,159.4648 1084,102.9766 1099,102.9766 L1109,102.9766 " fill="none" style="stroke:#A80036;stroke-width:1.0;"/><rect fill="#FEFECE" filter="url(#fx1jewnfu6ph6)" height="36.4883" rx="12.5" ry="12.5" style="stroke:#A80036;stroke-width:1.5;" width="256" x="1109" y="141.2207"/><text fill="#000000" font-family="sans-serif" font-size="14" lengthAdjust="spacing" textLength="236" x="1119" y="164.7559">3.2 セキュアなアプリケーション階層</text><path d="M1059,159.4648 L1069,159.4648 C1084,159.4648 1084,159.4648 1099,159.4648 L1109,159.4648 " fill="none" style="stroke:#A80036;stroke-width:1.0;"/><rect fill="#FEFECE" filter="url(#fx1jewnfu6ph6)" height="36.4883" rx="12.5" ry="12.5" style="stroke:#A80036;stroke-width:1.5;" width="172" x="1109" y="197.709"/><text fill="#000000" font-family="sans-serif" font-size="14" lengthAdjust="spacing" textLength="152" x="1119" y="221.2441">3.3 データセキュリティ</text><path d="M1059,159.4648 L1069,159.4648 C1084,159.4648 1084,215.9531 1099,215.9531 L1109,215.9531 " fill="none" style="stroke:#A80036;stroke-width:1.0;"/><path d="M776,268.9297 L786,268.9297 C801,268.9297 801,159.4648 816,159.4648 L826,159.4648 " fill="none" style="stroke:#A80036;stroke-width:1.0;"/><rect fill="#FFA500" filter="url(#fx1jewnfu6ph6)" height="52.9766" rx="12.5" ry="12.5" style="stroke:#A80036;stroke-width:1.5;" width="201" x="826" y="327.1738"/><text fill="#000000" font-family="sans-serif" font-size="14" lengthAdjust="spacing" textLength="143" x="836" y="350.709">4. コストを最適化した</text><text fill="#000000" font-family="sans-serif" font-size="14" lengthAdjust="spacing" textLength="181" x="836" y="367.1973">アーキテクチャの設計 [18%]</text><rect fill="#FEFECE" filter="url(#fx1jewnfu6ph6)" height="52.9766" rx="12.5" ry="12.5" style="stroke:#A80036;stroke-width:1.5;" width="188" x="1077" y="254.1973"/><text fill="#000000" font-family="sans-serif" font-size="14" lengthAdjust="spacing" textLength="138" x="1087" y="277.7324">4.1 コスト効率の高い</text><text fill="#000000" font-family="sans-serif" font-size="14" lengthAdjust="spacing" textLength="168" x="1087" y="294.2207">ストレージソリューション</text><path d="M1027,353.6621 L1037,353.6621 C1052,353.6621 1052,280.6855 1067,280.6855 L1077,280.6855 " fill="none" style="stroke:#A80036;stroke-width:1.0;"/><rect fill="#FEFECE" filter="url(#fx1jewnfu6ph6)" height="52.9766" rx="12.5" ry="12.5" style="stroke:#A80036;stroke-width:1.5;" width="293" x="1077" y="327.1738"/><text fill="#000000" font-family="sans-serif" font-size="14" lengthAdjust="spacing" textLength="138" x="1087" y="350.709">4.2 費用対効果の高い</text><text fill="#000000" font-family="sans-serif" font-size="14" lengthAdjust="spacing" textLength="273" x="1087" y="367.1973">コンピューティング/データベースサービス</text><path d="M1027,353.6621 L1037,353.6621 C1052,353.6621 1052,353.6621 1067,353.6621 L1077,353.6621 " fill="none" style="stroke:#A80036;stroke-width:1.0;"/><rect fill="#FEFECE" filter="url(#fx1jewnfu6ph6)" height="52.9766" rx="12.5" ry="12.5" style="stroke:#A80036;stroke-width:1.5;" width="202" x="1077" y="400.1504"/><text fill="#000000" font-family="sans-serif" font-size="14" lengthAdjust="spacing" textLength="152" x="1087" y="423.6855">4.3 コストを最適化した</text><text fill="#000000" font-family="sans-serif" font-size="14" lengthAdjust="spacing" textLength="182" x="1087" y="440.1738">ネットワークアーキテクチャ</text><path d="M1027,353.6621 L1037,353.6621 C1052,353.6621 1052,426.6387 1067,426.6387 L1077,426.6387 " fill="none" style="stroke:#A80036;stroke-width:1.0;"/><path d="M776,268.9297 L786,268.9297 C801,268.9297 801,353.6621 816,353.6621 L826,353.6621 " fill="none" style="stroke:#A80036;stroke-width:1.0;"/><rect fill="#FFA500" filter="url(#fx1jewnfu6ph6)" height="52.9766" rx="12.5" ry="12.5" style="stroke:#A80036;stroke-width:1.5;" width="201" x="407" y="96.4883"/><text fill="#000000" font-family="sans-serif" font-size="14" lengthAdjust="spacing" textLength="115" x="417" y="120.0234">1. 弾力性に優れた</text><text fill="#000000" font-family="sans-serif" font-size="14" lengthAdjust="spacing" textLength="181" x="417" y="136.5117">アーキテクチャの設計 [30%]</text><rect fill="#FEFECE" filter="url(#fx1jewnfu6ph6)" height="36.4883" rx="12.5" ry="12.5" style="stroke:#A80036;stroke-width:1.5;" width="270" x="87" y="20"/><text fill="#000000" font-family="sans-serif" font-size="14" lengthAdjust="spacing" textLength="250" x="97" y="43.5352">1.1 多層アーキテクチャソリューション</text><path d="M407,122.9766 L397,122.9766 C382,122.9766 382,38.2441 367,38.2441 L357,38.2441 " fill="none" style="stroke:#A80036;stroke-width:1.0;"/><rect fill="#FEFECE" filter="url(#fx1jewnfu6ph6)" height="36.4883" rx="12.5" ry="12.5" style="stroke:#A80036;stroke-width:1.5;" width="347" x="10" y="76.4883"/><text fill="#000000" font-family="sans-serif" font-size="14" lengthAdjust="spacing" textLength="327" x="20" y="100.0234">1.2 高可用性/フォールトトレラントアーキテクチャ</text><path d="M407,122.9766 L397,122.9766 C382,122.9766 382,94.7324 367,94.7324 L357,94.7324 " fill="none" style="stroke:#A80036;stroke-width:1.0;"/><rect fill="#FEFECE" filter="url(#fx1jewnfu6ph6)" height="36.4883" rx="12.5" ry="12.5" style="stroke:#A80036;stroke-width:1.5;" width="214" x="143" y="132.9766"/><text fill="#000000" font-family="sans-serif" font-size="14" lengthAdjust="spacing" textLength="194" x="153" y="156.5117">1.3 デカップリングメカニズム</text><path d="M407,122.9766 L397,122.9766 C382,122.9766 382,151.2207 367,151.2207 L357,151.2207 " fill="none" style="stroke:#A80036;stroke-width:1.0;"/><rect fill="#FEFECE" filter="url(#fx1jewnfu6ph6)" height="36.4883" rx="12.5" ry="12.5" style="stroke:#A80036;stroke-width:1.5;" width="214" x="143" y="189.4648"/><text fill="#000000" font-family="sans-serif" font-size="14" lengthAdjust="spacing" textLength="194" x="153" y="213">1.4 耐障害性の高いストレージ</text><path d="M407,122.9766 L397,122.9766 C382,122.9766 382,207.709 367,207.709 L357,207.709 " fill="none" style="stroke:#A80036;stroke-width:1.0;"/><path d="M658,268.9297 L648,268.9297 C633,268.9297 633,122.9766 618,122.9766 L608,122.9766 " fill="none" style="stroke:#A80036;stroke-width:1.0;"/><rect fill="#FFA500" filter="url(#fx1jewnfu6ph6)" height="52.9766" rx="12.5" ry="12.5" style="stroke:#A80036;stroke-width:1.5;" width="177" x="431" y="355.418"/><text fill="#000000" font-family="sans-serif" font-size="14" lengthAdjust="spacing" textLength="157" x="441" y="378.9531">2. 高性能アーキテクチャ</text><text fill="#000000" font-family="sans-serif" font-size="14" lengthAdjust="spacing" textLength="83" x="441" y="395.4414">の設計 [28%]</text><rect fill="#FEFECE" filter="url(#fx1jewnfu6ph6)" height="52.9766" rx="12.5" ry="12.5" style="stroke:#A80036;stroke-width:1.5;" width="244" x="137" y="245.9531"/><text fill="#000000" font-family="sans-serif" font-size="14" lengthAdjust="spacing" textLength="194" x="147" y="269.4883">2.1 伸縮自在でスケーラブルな</text><text fill="#000000" font-family="sans-serif" font-size="14" lengthAdjust="spacing" textLength="224" x="147" y="285.9766">コンピューティングソリューション</text><path d="M431,381.9063 L421,381.9063 C406,381.9063 406,272.4414 391,272.4414 L381,272.4414 " fill="none" style="stroke:#A80036;stroke-width:1.0;"/><rect fill="#FEFECE" filter="url(#fx1jewnfu6ph6)" height="52.9766" rx="12.5" ry="12.5" style="stroke:#A80036;stroke-width:1.5;" width="284" x="97" y="318.9297"/><text fill="#000000" font-family="sans-serif" font-size="14" lengthAdjust="spacing" textLength="264" x="107" y="342.4648">2.2 ハイパフォーマンスでスケーラブルな</text><text fill="#000000" font-family="sans-serif" font-size="14" lengthAdjust="spacing" textLength="168" x="107" y="358.9531">ストレージソリューション</text><path d="M431,381.9063 L421,381.9063 C406,381.9063 406,345.418 391,345.418 L381,345.418 " fill="none" style="stroke:#A80036;stroke-width:1.0;"/><rect fill="#FEFECE" filter="url(#fx1jewnfu6ph6)" height="52.9766" rx="12.5" ry="12.5" style="stroke:#A80036;stroke-width:1.5;" width="202" x="179" y="391.9063"/><text fill="#000000" font-family="sans-serif" font-size="14" lengthAdjust="spacing" textLength="166" x="189" y="415.4414">2.3 ハイパフォーマンスな</text><text fill="#000000" font-family="sans-serif" font-size="14" lengthAdjust="spacing" textLength="182" x="189" y="431.9297">ネットワークソリューション</text><path d="M431,381.9063 L421,381.9063 C406,381.9063 406,418.3945 391,418.3945 L381,418.3945 " fill="none" style="stroke:#A80036;stroke-width:1.0;"/><rect fill="#FEFECE" filter="url(#fx1jewnfu6ph6)" height="52.9766" rx="12.5" ry="12.5" style="stroke:#A80036;stroke-width:1.5;" width="202" x="179" y="464.8828"/><text fill="#000000" font-family="sans-serif" font-size="14" lengthAdjust="spacing" textLength="166" x="189" y="488.418">2.4 ハイパフォーマンスな</text><text fill="#000000" font-family="sans-serif" font-size="14" lengthAdjust="spacing" textLength="182" x="189" y="504.9063">データベースソリューション</text><path d="M431,381.9063 L421,381.9063 C406,381.9063 406,491.3711 391,491.3711 L381,491.3711 " fill="none" style="stroke:#A80036;stroke-width:1.0;"/><path d="M658,268.9297 L648,268.9297 C633,268.9297 633,381.9063 618,381.9063 L608,381.9063 " fill="none" style="stroke:#A80036;stroke-width:1.0;"/><!--MD5=[a70c9c5d125ac9ff7414622ede41eaf3]
@startmindmap
-[#Pink] ソリューション\nアーキテクト\nアソシエイト

- -[#Orange] 1. 弾力性に優れた\nアーキテクチャの設計 [30%]
- - - 1.1 多層アーキテクチャソリューション
- - - 1.2 高可用性/フォールトトレラントアーキテクチャ
- - - 1.3 デカップリングメカニズム
- - - 1.4 耐障害性の高いストレージ

- -[#Orange] 2. 高性能アーキテクチャ\nの設計 [28%]
- - - 2.1 伸縮自在でスケーラブルな\nコンピューティングソリューション
- - - 2.2 ハイパフォーマンスでスケーラブルな\nストレージソリューション
- - - 2.3 ハイパフォーマンスな\nネットワークソリューション
- - - 2.4 ハイパフォーマンスな\nデータベースソリューション

++[#Orange] 3. セキュアなアプリケーションと\nアーキテクチャの設計 [24%]
+++ 3.1 セキュアなアクセス設計
+++ 3.2 セキュアなアプリケーション階層
+++ 3.3 データセキュリティ

++[#Orange] 4. コストを最適化した\nアーキテクチャの設計 [18%]
+++ 4.1 コスト効率の高い\nストレージソリューション
+++ 4.2 費用対効果の高い\nコンピューティング/データベースサービス
+++ 4.3 コストを最適化した\nネットワークアーキテクチャ

@endmindmap

PlantUML version 1.2022.0(Wed Jan 12 01:16:42 JST 2022)
(GPL source distribution)
Java Runtime: OpenJDK Runtime Environment
JVM: OpenJDK 64-Bit Server VM
Default Encoding: UTF-8
Language: ja
Country: JP
--></g></svg>