<?xml version="1.0" encoding="UTF-8" standalone="no"?><svg xmlns="http://www.w3.org/2000/svg" xmlns:xlink="http://www.w3.org/1999/xlink" contentScriptType="application/ecmascript" contentStyleType="text/css" height="425px" preserveAspectRatio="none" style="width:1053px;height:425px;" version="1.1" viewBox="0 0 1053 425" width="1053px" zoomAndPan="magnify"><defs><filter height="300%" id="f1lbdx95ym1p72" width="300%" x="-1" y="-1"><feGaussianBlur result="blurOut" stdDeviation="2.0"/><feColorMatrix in="blurOut" result="blurOut2" type="matrix" values="0 0 0 0 0 0 0 0 0 0 0 0 0 0 0 0 0 0 .4 0"/><feOffset dx="4.0" dy="4.0" in="blurOut2" result="blurOut3"/><feBlend in="SourceGraphic" in2="blurOut3" mode="normal"/></filter></defs><g><rect fill="#FFC0CB" filter="url(#f1lbdx95ym1p72)" height="52.9766" rx="12.5" ry="12.5" style="stroke:#A80036;stroke-width:1.5;" width="134" x="414" y="185.3428"/><text fill="#000000" font-family="sans-serif" font-size="14" lengthAdjust="spacing" textLength="114" x="424" y="208.8779">Well-Architected</text><text fill="#000000" font-family="sans-serif" font-size="14" lengthAdjust="spacing" textLength="98" x="424" y="225.3662">フレームワーク</text><rect fill="#FEFECE" filter="url(#f1lbdx95ym1p72)" height="52.9766" rx="12.5" ry="12.5" style="stroke:#A80036;stroke-width:1.5;" width="185" x="598" y="152.9766"/><text fill="#000000" font-family="sans-serif" font-size="14" lengthAdjust="spacing" textLength="126" x="608" y="176.5117">パフォーマンス効率</text><text fill="#000000" font-family="sans-serif" font-size="14" lengthAdjust="spacing" textLength="165" x="608" y="193">(Performance Efficiency)</text><rect fill="#FEFECE" filter="url(#f1lbdx95ym1p72)" height="36.4883" rx="12.5" ry="12.5" style="stroke:#A80036;stroke-width:1.5;" width="187" x="833" y="20"/><text fill="#000000" font-family="sans-serif" font-size="14" lengthAdjust="spacing" textLength="167" x="843" y="43.5352">1.スケーラビリティの確保</text><path d="M783,179.4648 L793,179.4648 C808,179.4648 808,38.2441 823,38.2441 L833,38.2441 " fill="none" style="stroke:#A80036;stroke-width:1.0;"/><rect fill="#FEFECE" filter="url(#f1lbdx95ym1p72)" height="36.4883" rx="12.5" ry="12.5" style="stroke:#A80036;stroke-width:1.5;" width="187" x="833" y="76.4883"/><text fill="#000000" font-family="sans-serif" font-size="14" lengthAdjust="spacing" textLength="167" x="843" y="100.0234">3.使い捨てリソースの使用</text><path d="M783,179.4648 L793,179.4648 C808,179.4648 808,94.7324 823,94.7324 L833,94.7324 " fill="none" style="stroke:#A80036;stroke-width:1.0;"/><rect fill="#FEFECE" filter="url(#f1lbdx95ym1p72)" height="36.4883" rx="12.5" ry="12.5" style="stroke:#A80036;stroke-width:1.5;" width="117" x="833" y="132.9766"/><text fill="#000000" font-family="sans-serif" font-size="14" lengthAdjust="spacing" textLength="97" x="843" y="156.5117">5.サーバーレス</text><path d="M783,179.4648 L793,179.4648 C808,179.4648 808,151.2207 823,151.2207 L833,151.2207 " fill="none" style="stroke:#A80036;stroke-width:1.0;"/><rect fill="#FEFECE" filter="url(#f1lbdx95ym1p72)" height="36.4883" rx="12.5" ry="12.5" style="stroke:#A80036;stroke-width:1.5;" width="201" x="833" y="189.4648"/><text fill="#000000" font-family="sans-serif" font-size="14" lengthAdjust="spacing" textLength="181" x="843" y="213">6.最適なデータベースの選択</text><path d="M783,179.4648 L793,179.4648 C808,179.4648 808,207.709 823,207.709 L833,207.709 " fill="none" style="stroke:#A80036;stroke-width:1.0;"/><rect fill="#FEFECE" filter="url(#f1lbdx95ym1p72)" height="36.4883" rx="12.5" ry="12.5" style="stroke:#A80036;stroke-width:1.5;" width="187" x="833" y="245.9531"/><text fill="#000000" font-family="sans-serif" font-size="14" lengthAdjust="spacing" textLength="167" x="843" y="269.4883">7.増大するデータ量の対応</text><path d="M783,179.4648 L793,179.4648 C808,179.4648 808,264.1973 823,264.1973 L833,264.1973 " fill="none" style="stroke:#A80036;stroke-width:1.0;"/><rect fill="#FEFECE" filter="url(#f1lbdx95ym1p72)" height="36.4883" rx="12.5" ry="12.5" style="stroke:#A80036;stroke-width:1.5;" width="154" x="833" y="302.4414"/><text fill="#000000" font-family="sans-serif" font-size="14" lengthAdjust="spacing" textLength="134" x="843" y="325.9766">10.キャッシュの利用</text><path d="M783,179.4648 L793,179.4648 C808,179.4648 808,320.6855 823,320.6855 L833,320.6855 " fill="none" style="stroke:#A80036;stroke-width:1.0;"/><path d="M548,211.8311 L558,211.8311 C573,211.8311 573,179.4648 588,179.4648 L598,179.4648 " fill="none" style="stroke:#A80036;stroke-width:1.0;"/><rect fill="#FEFECE" filter="url(#f1lbdx95ym1p72)" height="52.9766" rx="12.5" ry="12.5" style="stroke:#A80036;stroke-width:1.5;" width="154" x="598" y="350.6855"/><text fill="#000000" font-family="sans-serif" font-size="14" lengthAdjust="spacing" textLength="84" x="608" y="374.2207">コスト最適化</text><text fill="#000000" font-family="sans-serif" font-size="14" lengthAdjust="spacing" textLength="134" x="608" y="390.709">(Cost Optimization)</text><rect fill="#FEFECE" filter="url(#f1lbdx95ym1p72)" height="36.4883" rx="12.5" ry="12.5" style="stroke:#A80036;stroke-width:1.5;" width="117" x="802" y="358.9297"/><text fill="#000000" font-family="sans-serif" font-size="14" lengthAdjust="spacing" textLength="97" x="812" y="382.4648">5.コスト最適化</text><path d="M752,377.1738 L762,377.1738 C777,377.1738 777,377.1738 792,377.1738 L802,377.1738 " fill="none" style="stroke:#A80036;stroke-width:1.0;"/><path d="M548,211.8311 L558,211.8311 C573,211.8311 573,377.1738 588,377.1738 L598,377.1738 " fill="none" style="stroke:#A80036;stroke-width:1.0;"/><rect fill="#FEFECE" filter="url(#f1lbdx95ym1p72)" height="52.9766" rx="12.5" ry="12.5" style="stroke:#A80036;stroke-width:1.5;" width="187" x="177" y="40"/><text fill="#000000" font-family="sans-serif" font-size="14" lengthAdjust="spacing" textLength="98" x="187" y="63.5352">運用上の優秀性</text><text fill="#000000" font-family="sans-serif" font-size="14" lengthAdjust="spacing" textLength="167" x="187" y="80.0234">(Operational Excellence)</text><rect fill="#FEFECE" filter="url(#f1lbdx95ym1p72)" height="36.4883" rx="12.5" ry="12.5" style="stroke:#A80036;stroke-width:1.5;" width="117" x="10" y="48.2441"/><text fill="#000000" font-family="sans-serif" font-size="14" lengthAdjust="spacing" textLength="97" x="20" y="71.7793">2.環境の自動化</text><path d="M177,66.4883 L167,66.4883 C152,66.4883 152,66.4883 137,66.4883 L127,66.4883 " fill="none" style="stroke:#A80036;stroke-width:1.0;"/><path d="M414,211.8311 L404,211.8311 C389,211.8311 389,66.4883 374,66.4883 L364,66.4883 " fill="none" style="stroke:#A80036;stroke-width:1.0;"/><rect fill="#FEFECE" filter="url(#f1lbdx95ym1p72)" height="52.9766" rx="12.5" ry="12.5" style="stroke:#A80036;stroke-width:1.5;" width="84" x="280" y="112.9766"/><text fill="#000000" font-family="sans-serif" font-size="14" lengthAdjust="spacing" textLength="42" x="290" y="136.5117">安全性</text><text fill="#000000" font-family="sans-serif" font-size="14" lengthAdjust="spacing" textLength="64" x="290" y="153">(Security)</text><rect fill="#FEFECE" filter="url(#f1lbdx95ym1p72)" height="36.4883" rx="12.5" ry="12.5" style="stroke:#A80036;stroke-width:1.5;" width="168" x="62" y="121.2207"/><text fill="#000000" font-family="sans-serif" font-size="14" lengthAdjust="spacing" textLength="148" x="72" y="144.7559">11.セキュリティの確保</text><path d="M280,139.4648 L270,139.4648 C255,139.4648 255,139.4648 240,139.4648 L230,139.4648 " fill="none" style="stroke:#A80036;stroke-width:1.0;"/><path d="M414,211.8311 L404,211.8311 C389,211.8311 389,139.4648 374,139.4648 L364,139.4648 " fill="none" style="stroke:#A80036;stroke-width:1.0;"/><rect fill="#FEFECE" filter="url(#f1lbdx95ym1p72)" height="52.9766" rx="12.5" ry="12.5" style="stroke:#A80036;stroke-width:1.5;" width="96" x="268" y="254.1973"/><text fill="#000000" font-family="sans-serif" font-size="14" lengthAdjust="spacing" textLength="42" x="278" y="277.7324">信頼性</text><text fill="#000000" font-family="sans-serif" font-size="14" lengthAdjust="spacing" textLength="76" x="278" y="294.2207">(Reliability)</text><rect fill="#FEFECE" filter="url(#f1lbdx95ym1p72)" height="36.4883" rx="12.5" ry="12.5" style="stroke:#A80036;stroke-width:1.5;" width="187" x="31" y="177.709"/><text fill="#000000" font-family="sans-serif" font-size="14" lengthAdjust="spacing" textLength="167" x="41" y="201.2441">1.スケーラビリティの確保</text><path d="M268,280.6855 L258,280.6855 C243,280.6855 243,195.9531 228,195.9531 L218,195.9531 " fill="none" style="stroke:#A80036;stroke-width:1.0;"/><rect fill="#FEFECE" filter="url(#f1lbdx95ym1p72)" height="36.4883" rx="12.5" ry="12.5" style="stroke:#A80036;stroke-width:1.5;" width="117" x="101" y="234.1973"/><text fill="#000000" font-family="sans-serif" font-size="14" lengthAdjust="spacing" textLength="97" x="111" y="257.7324">2.環境の自動化</text><path d="M268,280.6855 L258,280.6855 C243,280.6855 243,252.4414 228,252.4414 L218,252.4414 " fill="none" style="stroke:#A80036;stroke-width:1.0;"/><rect fill="#FEFECE" filter="url(#f1lbdx95ym1p72)" height="36.4883" rx="12.5" ry="12.5" style="stroke:#A80036;stroke-width:1.5;" width="187" x="31" y="290.6855"/><text fill="#000000" font-family="sans-serif" font-size="14" lengthAdjust="spacing" textLength="167" x="41" y="314.2207">4.コンポーネントの疎結合</text><path d="M268,280.6855 L258,280.6855 C243,280.6855 243,308.9297 228,308.9297 L218,308.9297 " fill="none" style="stroke:#A80036;stroke-width:1.0;"/><rect fill="#FEFECE" filter="url(#f1lbdx95ym1p72)" height="36.4883" rx="12.5" ry="12.5" style="stroke:#A80036;stroke-width:1.5;" width="190" x="28" y="347.1738"/><text fill="#000000" font-family="sans-serif" font-size="14" lengthAdjust="spacing" textLength="170" x="38" y="370.709">8.単一障害点(SPOF)の排除</text><path d="M268,280.6855 L258,280.6855 C243,280.6855 243,365.418 228,365.418 L218,365.418 " fill="none" style="stroke:#A80036;stroke-width:1.0;"/><path d="M414,211.8311 L404,211.8311 C389,211.8311 389,280.6855 374,280.6855 L364,280.6855 " fill="none" style="stroke:#A80036;stroke-width:1.0;"/><!--MD5=[bc06d099b70ce3180e5b6cd0cddeacad]
@startmindmap
-[#Pink] Well-Architected\nフレームワーク
- - 運用上の優秀性\n(Operational Excellence)
- - - 2.環境の自動化

- - 安全性\n(Security)
- - - 11.セキュリティの確保

- - 信頼性\n(Reliability)
- - - 1.スケーラビリティの確保
- - - 2.環境の自動化
- - - 4.コンポーネントの疎結合
- - - 8.単一障害点(SPOF)の排除

++ パフォーマンス効率\n(Performance Efficiency)
+++ 1.スケーラビリティの確保
+++ 3.使い捨てリソースの使用
+++ 5.サーバーレス
+++ 6.最適なデータベースの選択
+++ 7.増大するデータ量の対応
+++ 10.キャッシュの利用

++ コスト最適化\n(Cost Optimization)
+++ 5.コスト最適化

@endmindmap

PlantUML version 1.2021.00(Sun Jan 10 19:25:05 JST 2021)
(GPL source distribution)
Java Runtime: OpenJDK Runtime Environment
JVM: OpenJDK 64-Bit Server VM
Default Encoding: UTF-8
Language: ja
Country: JP
--></g></svg>