<?xml version="1.0" encoding="UTF-8" standalone="no"?><svg xmlns="http://www.w3.org/2000/svg" xmlns:xlink="http://www.w3.org/1999/xlink" contentScriptType="application/ecmascript" contentStyleType="text/css" height="425px" preserveAspectRatio="none" style="width:1200px;height:425px;" version="1.1" viewBox="0 0 1200 425" width="1200px" zoomAndPan="magnify"><defs><filter height="300%" id="f1e07wwuyhw821" width="300%" x="-1" y="-1"><feGaussianBlur result="blurOut" stdDeviation="2.0"/><feColorMatrix in="blurOut" result="blurOut2" type="matrix" values="0 0 0 0 0 0 0 0 0 0 0 0 0 0 0 0 0 0 .4 0"/><feOffset dx="4.0" dy="4.0" in="blurOut2" result="blurOut3"/><feBlend in="SourceGraphic" in2="blurOut3" mode="normal"/></filter></defs><g><rect fill="#FFC0CB" filter="url(#f1e07wwuyhw821)" height="52.9766" rx="12.5" ry="12.5" style="stroke:#A80036;stroke-width:1.5;" width="134" x="561" y="185.3428"/><text fill="#000000" font-family="sans-serif" font-size="14" lengthAdjust="spacing" textLength="114" x="571" y="208.8779">Well-Architected</text><text fill="#000000" font-family="sans-serif" font-size="14" lengthAdjust="spacing" textLength="98" x="571" y="225.3662">フレームワーク</text><rect fill="#FFA500" filter="url(#f1e07wwuyhw821)" height="52.9766" rx="12.5" ry="12.5" style="stroke:#A80036;stroke-width:1.5;" width="185" x="745" y="152.9766"/><text fill="#000000" font-family="sans-serif" font-size="14" lengthAdjust="spacing" textLength="126" x="755" y="176.5117">パフォーマンス効率</text><text fill="#000000" font-family="sans-serif" font-size="14" lengthAdjust="spacing" textLength="165" x="755" y="193">(Performance Efficiency)</text><rect fill="#FEFECE" filter="url(#f1e07wwuyhw821)" height="36.4883" rx="12.5" ry="12.5" style="stroke:#A80036;stroke-width:1.5;" width="187" x="980" y="20"/><text fill="#000000" font-family="sans-serif" font-size="14" lengthAdjust="spacing" textLength="167" x="990" y="43.5352">1.スケーラビリティの確保</text><path d="M930,179.4648 L940,179.4648 C955,179.4648 955,38.2441 970,38.2441 L980,38.2441 " fill="none" style="stroke:#A80036;stroke-width:1.0;"/><rect fill="#FEFECE" filter="url(#f1e07wwuyhw821)" height="36.4883" rx="12.5" ry="12.5" style="stroke:#A80036;stroke-width:1.5;" width="187" x="980" y="76.4883"/><text fill="#000000" font-family="sans-serif" font-size="14" lengthAdjust="spacing" textLength="167" x="990" y="100.0234">3.使い捨てリソースの使用</text><path d="M930,179.4648 L940,179.4648 C955,179.4648 955,94.7324 970,94.7324 L980,94.7324 " fill="none" style="stroke:#A80036;stroke-width:1.0;"/><rect fill="#FEFECE" filter="url(#f1e07wwuyhw821)" height="36.4883" rx="12.5" ry="12.5" style="stroke:#A80036;stroke-width:1.5;" width="117" x="980" y="132.9766"/><text fill="#000000" font-family="sans-serif" font-size="14" lengthAdjust="spacing" textLength="97" x="990" y="156.5117">5.サーバーレス</text><path d="M930,179.4648 L940,179.4648 C955,179.4648 955,151.2207 970,151.2207 L980,151.2207 " fill="none" style="stroke:#A80036;stroke-width:1.0;"/><rect fill="#FEFECE" filter="url(#f1e07wwuyhw821)" height="36.4883" rx="12.5" ry="12.5" style="stroke:#A80036;stroke-width:1.5;" width="201" x="980" y="189.4648"/><text fill="#000000" font-family="sans-serif" font-size="14" lengthAdjust="spacing" textLength="181" x="990" y="213">6.最適なデータベースの選択</text><path d="M930,179.4648 L940,179.4648 C955,179.4648 955,207.709 970,207.709 L980,207.709 " fill="none" style="stroke:#A80036;stroke-width:1.0;"/><rect fill="#FEFECE" filter="url(#f1e07wwuyhw821)" height="36.4883" rx="12.5" ry="12.5" style="stroke:#A80036;stroke-width:1.5;" width="187" x="980" y="245.9531"/><text fill="#000000" font-family="sans-serif" font-size="14" lengthAdjust="spacing" textLength="167" x="990" y="269.4883">7.増大するデータ量の対応</text><path d="M930,179.4648 L940,179.4648 C955,179.4648 955,264.1973 970,264.1973 L980,264.1973 " fill="none" style="stroke:#A80036;stroke-width:1.0;"/><rect fill="#FEFECE" filter="url(#f1e07wwuyhw821)" height="36.4883" rx="12.5" ry="12.5" style="stroke:#A80036;stroke-width:1.5;" width="154" x="980" y="302.4414"/><text fill="#000000" font-family="sans-serif" font-size="14" lengthAdjust="spacing" textLength="134" x="990" y="325.9766">10.キャッシュの利用</text><path d="M930,179.4648 L940,179.4648 C955,179.4648 955,320.6855 970,320.6855 L980,320.6855 " fill="none" style="stroke:#A80036;stroke-width:1.0;"/><path d="M695,211.8311 L705,211.8311 C720,211.8311 720,179.4648 735,179.4648 L745,179.4648 " fill="none" style="stroke:#A80036;stroke-width:1.0;"/><rect fill="#FFA500" filter="url(#f1e07wwuyhw821)" height="52.9766" rx="12.5" ry="12.5" style="stroke:#A80036;stroke-width:1.5;" width="154" x="745" y="350.6855"/><text fill="#000000" font-family="sans-serif" font-size="14" lengthAdjust="spacing" textLength="84" x="755" y="374.2207">コスト最適化</text><text fill="#000000" font-family="sans-serif" font-size="14" lengthAdjust="spacing" textLength="134" x="755" y="390.709">(Cost Optimization)</text><rect fill="#FEFECE" filter="url(#f1e07wwuyhw821)" height="36.4883" rx="12.5" ry="12.5" style="stroke:#A80036;stroke-width:1.5;" width="103" x="949" y="358.9297"/><text fill="#000000" font-family="sans-serif" font-size="14" lengthAdjust="spacing" textLength="83" x="959" y="382.4648">5.サーバレス</text><path d="M899,377.1738 L909,377.1738 C924,377.1738 924,377.1738 939,377.1738 L949,377.1738 " fill="none" style="stroke:#A80036;stroke-width:1.0;"/><path d="M695,211.8311 L705,211.8311 C720,211.8311 720,377.1738 735,377.1738 L745,377.1738 " fill="none" style="stroke:#A80036;stroke-width:1.0;"/><rect fill="#FFA500" filter="url(#f1e07wwuyhw821)" height="52.9766" rx="12.5" ry="12.5" style="stroke:#A80036;stroke-width:1.5;" width="187" x="324" y="40"/><text fill="#000000" font-family="sans-serif" font-size="14" lengthAdjust="spacing" textLength="98" x="334" y="63.5352">運用上の優秀性</text><text fill="#000000" font-family="sans-serif" font-size="14" lengthAdjust="spacing" textLength="167" x="334" y="80.0234">(Operational Excellence)</text><rect fill="#FEFECE" filter="url(#f1e07wwuyhw821)" height="36.4883" rx="12.5" ry="12.5" style="stroke:#A80036;stroke-width:1.5;" width="117" x="157" y="48.2441"/><text fill="#000000" font-family="sans-serif" font-size="14" lengthAdjust="spacing" textLength="97" x="167" y="71.7793">2.環境の自動化</text><path d="M324,66.4883 L314,66.4883 C299,66.4883 299,66.4883 284,66.4883 L274,66.4883 " fill="none" style="stroke:#A80036;stroke-width:1.0;"/><path d="M561,211.8311 L551,211.8311 C536,211.8311 536,66.4883 521,66.4883 L511,66.4883 " fill="none" style="stroke:#A80036;stroke-width:1.0;"/><rect fill="#FFA500" filter="url(#f1e07wwuyhw821)" height="52.9766" rx="12.5" ry="12.5" style="stroke:#A80036;stroke-width:1.5;" width="84" x="427" y="112.9766"/><text fill="#000000" font-family="sans-serif" font-size="14" lengthAdjust="spacing" textLength="42" x="437" y="136.5117">安全性</text><text fill="#000000" font-family="sans-serif" font-size="14" lengthAdjust="spacing" textLength="64" x="437" y="153">(Security)</text><rect fill="#FEFECE" filter="url(#f1e07wwuyhw821)" height="36.4883" rx="12.5" ry="12.5" style="stroke:#A80036;stroke-width:1.5;" width="168" x="209" y="121.2207"/><text fill="#000000" font-family="sans-serif" font-size="14" lengthAdjust="spacing" textLength="148" x="219" y="144.7559">11.セキュリティの確保</text><path d="M427,139.4648 L417,139.4648 C402,139.4648 402,139.4648 387,139.4648 L377,139.4648 " fill="none" style="stroke:#A80036;stroke-width:1.0;"/><path d="M561,211.8311 L551,211.8311 C536,211.8311 536,139.4648 521,139.4648 L511,139.4648 " fill="none" style="stroke:#A80036;stroke-width:1.0;"/><rect fill="#FFA500" filter="url(#f1e07wwuyhw821)" height="52.9766" rx="12.5" ry="12.5" style="stroke:#A80036;stroke-width:1.5;" width="96" x="415" y="254.1973"/><text fill="#000000" font-family="sans-serif" font-size="14" lengthAdjust="spacing" textLength="42" x="425" y="277.7324">信頼性</text><text fill="#000000" font-family="sans-serif" font-size="14" lengthAdjust="spacing" textLength="76" x="425" y="294.2207">(Reliability)</text><rect fill="#FEFECE" filter="url(#f1e07wwuyhw821)" height="36.4883" rx="12.5" ry="12.5" style="stroke:#A80036;stroke-width:1.5;" width="118" x="247" y="205.9531"/><text fill="#000000" font-family="sans-serif" font-size="14" lengthAdjust="spacing" textLength="98" x="257" y="229.4883">弾力性・柔軟さ</text><rect fill="#FEFECE" filter="url(#f1e07wwuyhw821)" height="36.4883" rx="12.5" ry="12.5" style="stroke:#A80036;stroke-width:1.5;" width="187" x="10" y="177.709"/><text fill="#000000" font-family="sans-serif" font-size="14" lengthAdjust="spacing" textLength="167" x="20" y="201.2441">1.スケーラビリティの確保</text><path d="M247,224.1973 L237,224.1973 C222,224.1973 222,195.9531 207,195.9531 L197,195.9531 " fill="none" style="stroke:#A80036;stroke-width:1.0;"/><rect fill="#FEFECE" filter="url(#f1e07wwuyhw821)" height="36.4883" rx="12.5" ry="12.5" style="stroke:#A80036;stroke-width:1.5;" width="117" x="80" y="234.1973"/><text fill="#000000" font-family="sans-serif" font-size="14" lengthAdjust="spacing" textLength="97" x="90" y="257.7324">2.環境の自動化</text><path d="M247,224.1973 L237,224.1973 C222,224.1973 222,252.4414 207,252.4414 L197,252.4414 " fill="none" style="stroke:#A80036;stroke-width:1.0;"/><path d="M415,280.6855 L405,280.6855 C390,280.6855 390,224.1973 375,224.1973 L365,224.1973 " fill="none" style="stroke:#A80036;stroke-width:1.0;"/><rect fill="#FEFECE" filter="url(#f1e07wwuyhw821)" height="36.4883" rx="12.5" ry="12.5" style="stroke:#A80036;stroke-width:1.5;" width="62" x="303" y="318.9297"/><text fill="#000000" font-family="sans-serif" font-size="14" lengthAdjust="spacing" textLength="42" x="313" y="342.4648">一貫性</text><rect fill="#FEFECE" filter="url(#f1e07wwuyhw821)" height="36.4883" rx="12.5" ry="12.5" style="stroke:#A80036;stroke-width:1.5;" width="187" x="66" y="290.6855"/><text fill="#000000" font-family="sans-serif" font-size="14" lengthAdjust="spacing" textLength="167" x="76" y="314.2207">4.コンポーネントの疎結合</text><path d="M303,337.1738 L293,337.1738 C278,337.1738 278,308.9297 263,308.9297 L253,308.9297 " fill="none" style="stroke:#A80036;stroke-width:1.0;"/><rect fill="#FEFECE" filter="url(#f1e07wwuyhw821)" height="36.4883" rx="12.5" ry="12.5" style="stroke:#A80036;stroke-width:1.5;" width="190" x="63" y="347.1738"/><text fill="#000000" font-family="sans-serif" font-size="14" lengthAdjust="spacing" textLength="170" x="73" y="370.709">8.単一障害点(SPOF)の排除</text><path d="M303,337.1738 L293,337.1738 C278,337.1738 278,365.418 263,365.418 L253,365.418 " fill="none" style="stroke:#A80036;stroke-width:1.0;"/><path d="M415,280.6855 L405,280.6855 C390,280.6855 390,337.1738 375,337.1738 L365,337.1738 " fill="none" style="stroke:#A80036;stroke-width:1.0;"/><path d="M561,211.8311 L551,211.8311 C536,211.8311 536,280.6855 521,280.6855 L511,280.6855 " fill="none" style="stroke:#A80036;stroke-width:1.0;"/><!--MD5=[2b7a89639dc2d71ac61efe348a22d139]
@startmindmap
-[#Pink] Well-Architected\nフレームワーク
- -[#Orange] 運用上の優秀性\n(Operational Excellence)
- - - 2.環境の自動化

- -[#Orange] 安全性\n(Security)
- - - 11.セキュリティの確保

- -[#Orange] 信頼性\n(Reliability)
- - - 弾力性・柔軟さ
- - - - 1.スケーラビリティの確保
- - - - 2.環境の自動化
- - - 一貫性
- - - - 4.コンポーネントの疎結合
- - - - 8.単一障害点(SPOF)の排除

++[#Orange] パフォーマンス効率\n(Performance Efficiency)
+++ 1.スケーラビリティの確保
+++ 3.使い捨てリソースの使用
+++ 5.サーバーレス
+++ 6.最適なデータベースの選択
+++ 7.増大するデータ量の対応
+++ 10.キャッシュの利用

++[#Orange] コスト最適化\n(Cost Optimization)
+++ 5.サーバレス

@endmindmap

PlantUML version 1.2021.00(Sun Jan 10 19:25:05 JST 2021)
(GPL source distribution)
Java Runtime: OpenJDK Runtime Environment
JVM: OpenJDK 64-Bit Server VM
Default Encoding: UTF-8
Language: ja
Country: JP
--></g></svg>