<?xml version="1.0" encoding="UTF-8" standalone="no"?><svg xmlns="http://www.w3.org/2000/svg" xmlns:xlink="http://www.w3.org/1999/xlink" contentScriptType="application/ecmascript" contentStyleType="text/css" height="425px" preserveAspectRatio="none" style="width:1194px;height:425px;background:#FFFFFF;" version="1.1" viewBox="0 0 1194 425" width="1194px" zoomAndPan="magnify"><defs><filter height="300%" id="f1r47xq2df6wlj" width="300%" x="-1" y="-1"><feGaussianBlur result="blurOut" stdDeviation="2.0"/><feColorMatrix in="blurOut" result="blurOut2" type="matrix" values="0 0 0 0 0 0 0 0 0 0 0 0 0 0 0 0 0 0 .4 0"/><feOffset dx="4.0" dy="4.0" in="blurOut2" result="blurOut3"/><feBlend in="SourceGraphic" in2="blurOut3" mode="normal"/></filter></defs><g><rect fill="#FFC0CB" filter="url(#f1r47xq2df6wlj)" height="52.9766" rx="12.5" ry="12.5" style="stroke:#A80036;stroke-width:1.5;" width="134" x="555" y="185.3428"/><text fill="#000000" font-family="sans-serif" font-size="14" lengthAdjust="spacing" textLength="114" x="565" y="208.8779">Well-Architected</text><text fill="#000000" font-family="sans-serif" font-size="14" lengthAdjust="spacing" textLength="98" x="565" y="225.3662">フレームワーク</text><rect fill="#FFA500" filter="url(#f1r47xq2df6wlj)" height="52.9766" rx="12.5" ry="12.5" style="stroke:#A80036;stroke-width:1.5;" width="185" x="739" y="152.9766"/><text fill="#000000" font-family="sans-serif" font-size="14" lengthAdjust="spacing" textLength="126" x="749" y="176.5117">パフォーマンス効率</text><text fill="#000000" font-family="sans-serif" font-size="14" lengthAdjust="spacing" textLength="165" x="749" y="193">(Performance Efficiency)</text><rect fill="#FEFECE" filter="url(#f1r47xq2df6wlj)" height="36.4883" rx="12.5" ry="12.5" style="stroke:#A80036;stroke-width:1.5;" width="187" x="974" y="20"/><text fill="#000000" font-family="sans-serif" font-size="14" lengthAdjust="spacing" textLength="167" x="984" y="43.5352">1.スケーラビリティの確保</text><path d="M924,179.4648 L934,179.4648 C949,179.4648 949,38.2441 964,38.2441 L974,38.2441 " fill="none" style="stroke:#A80036;stroke-width:1.0;"/><rect fill="#FEFECE" filter="url(#f1r47xq2df6wlj)" height="36.4883" rx="12.5" ry="12.5" style="stroke:#A80036;stroke-width:1.5;" width="187" x="974" y="76.4883"/><text fill="#000000" font-family="sans-serif" font-size="14" lengthAdjust="spacing" textLength="167" x="984" y="100.0234">3.使い捨てリソースの使用</text><path d="M924,179.4648 L934,179.4648 C949,179.4648 949,94.7324 964,94.7324 L974,94.7324 " fill="none" style="stroke:#A80036;stroke-width:1.0;"/><rect fill="#FEFECE" filter="url(#f1r47xq2df6wlj)" height="36.4883" rx="12.5" ry="12.5" style="stroke:#A80036;stroke-width:1.5;" width="117" x="974" y="132.9766"/><text fill="#000000" font-family="sans-serif" font-size="14" lengthAdjust="spacing" textLength="97" x="984" y="156.5117">5.サーバーレス</text><path d="M924,179.4648 L934,179.4648 C949,179.4648 949,151.2207 964,151.2207 L974,151.2207 " fill="none" style="stroke:#A80036;stroke-width:1.0;"/><rect fill="#FEFECE" filter="url(#f1r47xq2df6wlj)" height="36.4883" rx="12.5" ry="12.5" style="stroke:#A80036;stroke-width:1.5;" width="201" x="974" y="189.4648"/><text fill="#000000" font-family="sans-serif" font-size="14" lengthAdjust="spacing" textLength="181" x="984" y="213">6.最適なデータベースの選択</text><path d="M924,179.4648 L934,179.4648 C949,179.4648 949,207.709 964,207.709 L974,207.709 " fill="none" style="stroke:#A80036;stroke-width:1.0;"/><rect fill="#FEFECE" filter="url(#f1r47xq2df6wlj)" height="36.4883" rx="12.5" ry="12.5" style="stroke:#A80036;stroke-width:1.5;" width="187" x="974" y="245.9531"/><text fill="#000000" font-family="sans-serif" font-size="14" lengthAdjust="spacing" textLength="167" x="984" y="269.4883">7.増大するデータ量の対応</text><path d="M924,179.4648 L934,179.4648 C949,179.4648 949,264.1973 964,264.1973 L974,264.1973 " fill="none" style="stroke:#A80036;stroke-width:1.0;"/><rect fill="#FEFECE" filter="url(#f1r47xq2df6wlj)" height="36.4883" rx="12.5" ry="12.5" style="stroke:#A80036;stroke-width:1.5;" width="154" x="974" y="302.4414"/><text fill="#000000" font-family="sans-serif" font-size="14" lengthAdjust="spacing" textLength="134" x="984" y="325.9766">10.キャッシュの利用</text><path d="M924,179.4648 L934,179.4648 C949,179.4648 949,320.6855 964,320.6855 L974,320.6855 " fill="none" style="stroke:#A80036;stroke-width:1.0;"/><path d="M689,211.8311 L699,211.8311 C714,211.8311 714,179.4648 729,179.4648 L739,179.4648 " fill="none" style="stroke:#A80036;stroke-width:1.0;"/><rect fill="#FFA500" filter="url(#f1r47xq2df6wlj)" height="52.9766" rx="12.5" ry="12.5" style="stroke:#A80036;stroke-width:1.5;" width="154" x="739" y="350.6855"/><text fill="#000000" font-family="sans-serif" font-size="14" lengthAdjust="spacing" textLength="84" x="749" y="374.2207">コスト最適化</text><text fill="#000000" font-family="sans-serif" font-size="14" lengthAdjust="spacing" textLength="134" x="749" y="390.709">(Cost Optimization)</text><rect fill="#FEFECE" filter="url(#f1r47xq2df6wlj)" height="36.4883" rx="12.5" ry="12.5" style="stroke:#A80036;stroke-width:1.5;" width="117" x="943" y="358.9297"/><text fill="#000000" font-family="sans-serif" font-size="14" lengthAdjust="spacing" textLength="97" x="953" y="382.4648">9.コスト最適化</text><path d="M893,377.1738 L903,377.1738 C918,377.1738 918,377.1738 933,377.1738 L943,377.1738 " fill="none" style="stroke:#A80036;stroke-width:1.0;"/><path d="M689,211.8311 L699,211.8311 C714,211.8311 714,377.1738 729,377.1738 L739,377.1738 " fill="none" style="stroke:#A80036;stroke-width:1.0;"/><rect fill="#FFA500" filter="url(#f1r47xq2df6wlj)" height="52.9766" rx="12.5" ry="12.5" style="stroke:#A80036;stroke-width:1.5;" width="90" x="415" y="116.4883"/><text fill="#000000" font-family="sans-serif" font-size="14" lengthAdjust="spacing" textLength="66" x="425" y="140.0234">Reliability</text><text fill="#000000" font-family="sans-serif" font-size="14" lengthAdjust="spacing" textLength="70" x="425" y="156.5117">（信頼性）</text><rect fill="#FEFECE" filter="url(#f1r47xq2df6wlj)" height="36.4883" rx="12.5" ry="12.5" style="stroke:#A80036;stroke-width:1.5;" width="118" x="247" y="68.2441"/><text fill="#000000" font-family="sans-serif" font-size="14" lengthAdjust="spacing" textLength="98" x="257" y="91.7793">弾力性・柔軟さ</text><rect fill="#FEFECE" filter="url(#f1r47xq2df6wlj)" height="36.4883" rx="12.5" ry="12.5" style="stroke:#A80036;stroke-width:1.5;" width="187" x="10" y="40"/><text fill="#000000" font-family="sans-serif" font-size="14" lengthAdjust="spacing" textLength="167" x="20" y="63.5352">1.スケーラビリティの確保</text><path d="M247,86.4883 L237,86.4883 C222,86.4883 222,58.2441 207,58.2441 L197,58.2441 " fill="none" style="stroke:#A80036;stroke-width:1.0;"/><rect fill="#FEFECE" filter="url(#f1r47xq2df6wlj)" height="36.4883" rx="12.5" ry="12.5" style="stroke:#A80036;stroke-width:1.5;" width="117" x="80" y="96.4883"/><text fill="#000000" font-family="sans-serif" font-size="14" lengthAdjust="spacing" textLength="97" x="90" y="120.0234">2.環境の自動化</text><path d="M247,86.4883 L237,86.4883 C222,86.4883 222,114.7324 207,114.7324 L197,114.7324 " fill="none" style="stroke:#A80036;stroke-width:1.0;"/><path d="M415,142.9766 L405,142.9766 C390,142.9766 390,86.4883 375,86.4883 L365,86.4883 " fill="none" style="stroke:#A80036;stroke-width:1.0;"/><rect fill="#FEFECE" filter="url(#f1r47xq2df6wlj)" height="36.4883" rx="12.5" ry="12.5" style="stroke:#A80036;stroke-width:1.5;" width="62" x="303" y="181.2207"/><text fill="#000000" font-family="sans-serif" font-size="14" lengthAdjust="spacing" textLength="42" x="313" y="204.7559">一貫性</text><rect fill="#FEFECE" filter="url(#f1r47xq2df6wlj)" height="36.4883" rx="12.5" ry="12.5" style="stroke:#A80036;stroke-width:1.5;" width="187" x="66" y="152.9766"/><text fill="#000000" font-family="sans-serif" font-size="14" lengthAdjust="spacing" textLength="167" x="76" y="176.5117">4.コンポーネントの疎結合</text><path d="M303,199.4648 L293,199.4648 C278,199.4648 278,171.2207 263,171.2207 L253,171.2207 " fill="none" style="stroke:#A80036;stroke-width:1.0;"/><rect fill="#FEFECE" filter="url(#f1r47xq2df6wlj)" height="36.4883" rx="12.5" ry="12.5" style="stroke:#A80036;stroke-width:1.5;" width="190" x="63" y="209.4648"/><text fill="#000000" font-family="sans-serif" font-size="14" lengthAdjust="spacing" textLength="170" x="73" y="233">8.単一障害点(SPOF)の排除</text><path d="M303,199.4648 L293,199.4648 C278,199.4648 278,227.709 263,227.709 L253,227.709 " fill="none" style="stroke:#A80036;stroke-width:1.0;"/><path d="M415,142.9766 L405,142.9766 C390,142.9766 390,199.4648 375,199.4648 L365,199.4648 " fill="none" style="stroke:#A80036;stroke-width:1.0;"/><path d="M555,211.8311 L545,211.8311 C530,211.8311 530,142.9766 515,142.9766 L505,142.9766 " fill="none" style="stroke:#A80036;stroke-width:1.0;"/><rect fill="#FFA500" filter="url(#f1r47xq2df6wlj)" height="52.9766" rx="12.5" ry="12.5" style="stroke:#A80036;stroke-width:1.5;" width="84" x="421" y="257.709"/><text fill="#000000" font-family="sans-serif" font-size="14" lengthAdjust="spacing" textLength="42" x="431" y="281.2441">安全性</text><text fill="#000000" font-family="sans-serif" font-size="14" lengthAdjust="spacing" textLength="64" x="431" y="297.7324">(Security)</text><rect fill="#FEFECE" filter="url(#f1r47xq2df6wlj)" height="36.4883" rx="12.5" ry="12.5" style="stroke:#A80036;stroke-width:1.5;" width="168" x="203" y="265.9531"/><text fill="#000000" font-family="sans-serif" font-size="14" lengthAdjust="spacing" textLength="148" x="213" y="289.4883">11.セキュリティの確保</text><path d="M421,284.1973 L411,284.1973 C396,284.1973 396,284.1973 381,284.1973 L371,284.1973 " fill="none" style="stroke:#A80036;stroke-width:1.0;"/><path d="M555,211.8311 L545,211.8311 C530,211.8311 530,284.1973 515,284.1973 L505,284.1973 " fill="none" style="stroke:#A80036;stroke-width:1.0;"/><rect fill="#FFA500" filter="url(#f1r47xq2df6wlj)" height="52.9766" rx="12.5" ry="12.5" style="stroke:#A80036;stroke-width:1.5;" width="177" x="328" y="330.6855"/><text fill="#000000" font-family="sans-serif" font-size="14" lengthAdjust="spacing" textLength="157" x="338" y="354.2207">Operational Excellence</text><text fill="#000000" font-family="sans-serif" font-size="14" lengthAdjust="spacing" textLength="126" x="338" y="370.709">（運用上の優秀性）</text><rect fill="#FEFECE" filter="url(#f1r47xq2df6wlj)" height="36.4883" rx="12.5" ry="12.5" style="stroke:#A80036;stroke-width:1.5;" width="117" x="161" y="338.9297"/><text fill="#000000" font-family="sans-serif" font-size="14" lengthAdjust="spacing" textLength="97" x="171" y="362.4648">2.環境の自動化</text><path d="M328,357.1738 L318,357.1738 C303,357.1738 303,357.1738 288,357.1738 L278,357.1738 " fill="none" style="stroke:#A80036;stroke-width:1.0;"/><path d="M555,211.8311 L545,211.8311 C530,211.8311 530,357.1738 515,357.1738 L505,357.1738 " fill="none" style="stroke:#A80036;stroke-width:1.0;"/><!--MD5=[ed3ff298733c7fa501726b6735582858]
@startmindmap
-[#Pink] Well-Architected\nフレームワーク

- -[#Orange] Reliability\n（信頼性）
- - - 弾力性・柔軟さ
- - - - 1.スケーラビリティの確保
- - - - 2.環境の自動化
- - - 一貫性
- - - - 4.コンポーネントの疎結合
- - - - 8.単一障害点(SPOF)の排除

- -[#Orange] 安全性\n(Security)
- - - 11.セキュリティの確保

- -[#Orange] Operational Excellence\n（運用上の優秀性）
- - - 2.環境の自動化

++[#Orange] パフォーマンス効率\n(Performance Efficiency)
+++ 1.スケーラビリティの確保
+++ 3.使い捨てリソースの使用
+++ 5.サーバーレス
+++ 6.最適なデータベースの選択
+++ 7.増大するデータ量の対応
+++ 10.キャッシュの利用

++[#Orange] コスト最適化\n(Cost Optimization)
+++ 9.コスト最適化

@endmindmap

PlantUML version 1.2022.0(Wed Jan 12 01:16:42 JST 2022)
(GPL source distribution)
Java Runtime: OpenJDK Runtime Environment
JVM: OpenJDK 64-Bit Server VM
Default Encoding: UTF-8
Language: ja
Country: JP
--></g></svg>