<?xml version="1.0" encoding="UTF-8" standalone="no"?><svg xmlns="http://www.w3.org/2000/svg" xmlns:xlink="http://www.w3.org/1999/xlink" contentScriptType="application/ecmascript" contentStyleType="text/css" height="1942px" preserveAspectRatio="none" style="width:1831px;height:1942px;" version="1.1" viewBox="0 0 1831 1942" width="1831px" zoomAndPan="magnify"><defs><filter height="300%" id="f1vq1us0afmqs1" width="300%" x="-1" y="-1"><feGaussianBlur result="blurOut" stdDeviation="2.0"/><feColorMatrix in="blurOut" result="blurOut2" type="matrix" values="0 0 0 0 0 0 0 0 0 0 0 0 0 0 0 0 0 0 .4 0"/><feOffset dx="4.0" dy="4.0" in="blurOut2" result="blurOut3"/><feBlend in="SourceGraphic" in2="blurOut3" mode="normal"/></filter></defs><g><rect fill="#FFC0CB" filter="url(#f1vq1us0afmqs1)" height="52.9766" rx="12.5" ry="12.5" style="stroke:#A80036;stroke-width:1.5;" width="146" x="750" y="943.8125"/><text fill="#000000" font-family="sans-serif" font-size="14" lengthAdjust="spacing" textLength="86" x="760" y="967.3477">AWSクラウド</text><text fill="#000000" font-family="sans-serif" font-size="14" lengthAdjust="spacing" textLength="126" x="760" y="983.8359">プラクティショナー</text><rect fill="#FFA500" filter="url(#f1vq1us0afmqs1)" height="36.4883" rx="12.5" ry="12.5" style="stroke:#A80036;stroke-width:1.5;" width="159" x="946" y="952.0566"/><text fill="#000000" font-family="sans-serif" font-size="14" lengthAdjust="spacing" textLength="139" x="956" y="975.5918">テクノロジー（33%）</text><rect fill="#FEFECE" filter="url(#f1vq1us0afmqs1)" height="36.4883" rx="12.5" ry="12.5" style="stroke:#A80036;stroke-width:1.5;" width="230" x="1155" y="76.4883"/><text fill="#000000" font-family="sans-serif" font-size="14" lengthAdjust="spacing" textLength="210" x="1165" y="100.0234">クローバルインフラクトラクチャ</text><rect fill="#FEFECE" filter="url(#f1vq1us0afmqs1)" height="36.4883" rx="12.5" ry="12.5" style="stroke:#A80036;stroke-width:1.5;" width="90" x="1435" y="20"/><text fill="#000000" font-family="sans-serif" font-size="14" lengthAdjust="spacing" textLength="70" x="1445" y="43.5352">リージョン</text><path d="M1385,94.7324 L1395,94.7324 C1410,94.7324 1410,38.2441 1425,38.2441 L1435,38.2441 " fill="none" style="stroke:#A80036;stroke-width:1.0;"/><rect fill="#FEFECE" filter="url(#f1vq1us0afmqs1)" height="36.4883" rx="12.5" ry="12.5" style="stroke:#A80036;stroke-width:1.5;" width="174" x="1435" y="76.4883"/><text fill="#000000" font-family="sans-serif" font-size="14" lengthAdjust="spacing" textLength="154" x="1445" y="100.0234">アベイラビリティゾーン</text><path d="M1385,94.7324 L1395,94.7324 C1410,94.7324 1410,94.7324 1425,94.7324 L1435,94.7324 " fill="none" style="stroke:#A80036;stroke-width:1.0;"/><rect fill="#FEFECE" filter="url(#f1vq1us0afmqs1)" height="36.4883" rx="12.5" ry="12.5" style="stroke:#A80036;stroke-width:1.5;" width="146" x="1435" y="132.9766"/><text fill="#000000" font-family="sans-serif" font-size="14" lengthAdjust="spacing" textLength="126" x="1445" y="156.5117">エッジロケーション</text><rect fill="#FEFECE" filter="url(#f1vq1us0afmqs1)" height="36.4883" rx="12.5" ry="12.5" style="stroke:#A80036;stroke-width:1.5;" width="98" x="1631" y="132.9766"/><text fill="#000000" font-family="sans-serif" font-size="14" lengthAdjust="spacing" textLength="78" x="1641" y="156.5117">CloudFront</text><path d="M1581,151.2207 L1591,151.2207 C1606,151.2207 1606,151.2207 1621,151.2207 L1631,151.2207 " fill="none" style="stroke:#A80036;stroke-width:1.0;"/><path d="M1385,94.7324 L1395,94.7324 C1410,94.7324 1410,151.2207 1425,151.2207 L1435,151.2207 " fill="none" style="stroke:#A80036;stroke-width:1.0;"/><path d="M1105,970.3008 L1115,970.3008 C1130,970.3008 1130,94.7324 1145,94.7324 L1155,94.7324 " fill="none" style="stroke:#A80036;stroke-width:1.0;"/><rect fill="#FEFECE" filter="url(#f1vq1us0afmqs1)" height="36.4883" rx="12.5" ry="12.5" style="stroke:#A80036;stroke-width:1.5;" width="132" x="1155" y="302.4414"/><text fill="#000000" font-family="sans-serif" font-size="14" lengthAdjust="spacing" textLength="112" x="1165" y="325.9766">プロビジョニング</text><rect fill="#FEFECE" filter="url(#f1vq1us0afmqs1)" height="36.4883" rx="12.5" ry="12.5" style="stroke:#A80036;stroke-width:1.5;" width="188" x="1337" y="189.4648"/><text fill="#000000" font-family="sans-serif" font-size="14" lengthAdjust="spacing" textLength="168" x="1347" y="213">マネージメントコンソール</text><path d="M1287,320.6855 L1297,320.6855 C1312,320.6855 1312,207.709 1327,207.709 L1337,207.709 " fill="none" style="stroke:#A80036;stroke-width:1.0;"/><rect fill="#FEFECE" filter="url(#f1vq1us0afmqs1)" height="36.4883" rx="12.5" ry="12.5" style="stroke:#A80036;stroke-width:1.5;" width="261" x="1337" y="245.9531"/><text fill="#000000" font-family="sans-serif" font-size="14" lengthAdjust="spacing" textLength="241" x="1347" y="269.4883">コマンドラインインターフェース(CLI)</text><path d="M1287,320.6855 L1297,320.6855 C1312,320.6855 1312,264.1973 1327,264.1973 L1337,264.1973 " fill="none" style="stroke:#A80036;stroke-width:1.0;"/><rect fill="#FEFECE" filter="url(#f1vq1us0afmqs1)" height="36.4883" rx="12.5" ry="12.5" style="stroke:#A80036;stroke-width:1.5;" width="132" x="1337" y="302.4414"/><text fill="#000000" font-family="sans-serif" font-size="14" lengthAdjust="spacing" textLength="112" x="1347" y="325.9766">CloudFormation</text><path d="M1287,320.6855 L1297,320.6855 C1312,320.6855 1312,320.6855 1327,320.6855 L1337,320.6855 " fill="none" style="stroke:#A80036;stroke-width:1.0;"/><rect fill="#FEFECE" filter="url(#f1vq1us0afmqs1)" height="36.4883" rx="12.5" ry="12.5" style="stroke:#A80036;stroke-width:1.5;" width="132" x="1337" y="358.9297"/><text fill="#000000" font-family="sans-serif" font-size="14" lengthAdjust="spacing" textLength="112" x="1347" y="382.4648">Elastic Beanstalk</text><path d="M1287,320.6855 L1297,320.6855 C1312,320.6855 1312,377.1738 1327,377.1738 L1337,377.1738 " fill="none" style="stroke:#A80036;stroke-width:1.0;"/><rect fill="#FEFECE" filter="url(#f1vq1us0afmqs1)" height="36.4883" rx="12.5" ry="12.5" style="stroke:#A80036;stroke-width:1.5;" width="89" x="1337" y="415.418"/><text fill="#000000" font-family="sans-serif" font-size="14" lengthAdjust="spacing" textLength="69" x="1347" y="438.9531">OpsWorks</text><path d="M1287,320.6855 L1297,320.6855 C1312,320.6855 1312,433.6621 1327,433.6621 L1337,433.6621 " fill="none" style="stroke:#A80036;stroke-width:1.0;"/><path d="M1105,970.3008 L1115,970.3008 C1130,970.3008 1130,320.6855 1145,320.6855 L1155,320.6855 " fill="none" style="stroke:#A80036;stroke-width:1.0;"/><rect fill="#FEFECE" filter="url(#f1vq1us0afmqs1)" height="36.4883" rx="12.5" ry="12.5" style="stroke:#A80036;stroke-width:1.5;" width="104" x="1155" y="697.8594"/><text fill="#000000" font-family="sans-serif" font-size="14" lengthAdjust="spacing" textLength="84" x="1165" y="721.3945">ネットワーク</text><rect fill="#FEFECE" filter="url(#f1vq1us0afmqs1)" height="36.4883" rx="12.5" ry="12.5" style="stroke:#A80036;stroke-width:1.5;" width="47" x="1309" y="471.9063"/><text fill="#000000" font-family="sans-serif" font-size="14" lengthAdjust="spacing" textLength="27" x="1319" y="495.4414">VPC</text><path d="M1259,716.1035 L1269,716.1035 C1284,716.1035 1284,490.1504 1299,490.1504 L1309,490.1504 " fill="none" style="stroke:#A80036;stroke-width:1.0;"/><rect fill="#FEFECE" filter="url(#f1vq1us0afmqs1)" height="36.4883" rx="12.5" ry="12.5" style="stroke:#A80036;stroke-width:1.5;" width="90" x="1309" y="528.3945"/><text fill="#000000" font-family="sans-serif" font-size="14" lengthAdjust="spacing" textLength="70" x="1319" y="551.9297">サブネット</text><path d="M1259,716.1035 L1269,716.1035 C1284,716.1035 1284,546.6387 1299,546.6387 L1309,546.6387 " fill="none" style="stroke:#A80036;stroke-width:1.0;"/><rect fill="#FEFECE" filter="url(#f1vq1us0afmqs1)" height="36.4883" rx="12.5" ry="12.5" style="stroke:#A80036;stroke-width:1.5;" width="131" x="1309" y="584.8828"/><text fill="#000000" font-family="sans-serif" font-size="14" lengthAdjust="spacing" textLength="111" x="1319" y="608.418">ネットワークACL</text><path d="M1259,716.1035 L1269,716.1035 C1284,716.1035 1284,603.127 1299,603.127 L1309,603.127 " fill="none" style="stroke:#A80036;stroke-width:1.0;"/><rect fill="#FEFECE" filter="url(#f1vq1us0afmqs1)" height="36.4883" rx="12.5" ry="12.5" style="stroke:#A80036;stroke-width:1.5;" width="160" x="1309" y="641.3711"/><text fill="#000000" font-family="sans-serif" font-size="14" lengthAdjust="spacing" textLength="140" x="1319" y="664.9063">セキュリティグループ</text><path d="M1259,716.1035 L1269,716.1035 C1284,716.1035 1284,659.6152 1299,659.6152 L1309,659.6152 " fill="none" style="stroke:#A80036;stroke-width:1.0;"/><rect fill="#FEFECE" filter="url(#f1vq1us0afmqs1)" height="36.4883" rx="12.5" ry="12.5" style="stroke:#A80036;stroke-width:1.5;" width="126" x="1309" y="810.8359"/><text fill="#000000" font-family="sans-serif" font-size="14" lengthAdjust="spacing" textLength="106" x="1319" y="834.3711">外部NWとの接続</text><rect fill="#FEFECE" filter="url(#f1vq1us0afmqs1)" height="36.4883" rx="12.5" ry="12.5" style="stroke:#A80036;stroke-width:1.5;" width="135" x="1485" y="697.8594"/><text fill="#000000" font-family="sans-serif" font-size="14" lengthAdjust="spacing" textLength="115" x="1495" y="721.3945">Internet Gateway</text><path d="M1435,829.0801 L1445,829.0801 C1460,829.0801 1460,716.1035 1475,716.1035 L1485,716.1035 " fill="none" style="stroke:#A80036;stroke-width:1.0;"/><rect fill="#FEFECE" filter="url(#f1vq1us0afmqs1)" height="36.4883" rx="12.5" ry="12.5" style="stroke:#A80036;stroke-width:1.5;" width="110" x="1485" y="754.3477"/><text fill="#000000" font-family="sans-serif" font-size="14" lengthAdjust="spacing" textLength="90" x="1495" y="777.8828">NAT Gateway</text><path d="M1435,829.0801 L1445,829.0801 C1460,829.0801 1460,772.5918 1475,772.5918 L1485,772.5918 " fill="none" style="stroke:#A80036;stroke-width:1.0;"/><rect fill="#FEFECE" filter="url(#f1vq1us0afmqs1)" height="36.4883" rx="12.5" ry="12.5" style="stroke:#A80036;stroke-width:1.5;" width="216" x="1485" y="810.8359"/><text fill="#000000" font-family="sans-serif" font-size="14" lengthAdjust="spacing" textLength="196" x="1495" y="834.3711">仮想プライベートゲートウェイ</text><path d="M1435,829.0801 L1445,829.0801 C1460,829.0801 1460,829.0801 1475,829.0801 L1485,829.0801 " fill="none" style="stroke:#A80036;stroke-width:1.0;"/><rect fill="#FEFECE" filter="url(#f1vq1us0afmqs1)" height="36.4883" rx="12.5" ry="12.5" style="stroke:#A80036;stroke-width:1.5;" width="121" x="1485" y="867.3242"/><text fill="#000000" font-family="sans-serif" font-size="14" lengthAdjust="spacing" textLength="101" x="1495" y="890.8594">Direct Connect</text><path d="M1435,829.0801 L1445,829.0801 C1460,829.0801 1460,885.5684 1475,885.5684 L1485,885.5684 " fill="none" style="stroke:#A80036;stroke-width:1.0;"/><rect fill="#FEFECE" filter="url(#f1vq1us0afmqs1)" height="36.4883" rx="12.5" ry="12.5" style="stroke:#A80036;stroke-width:1.5;" width="117" x="1485" y="923.8125"/><text fill="#000000" font-family="sans-serif" font-size="14" lengthAdjust="spacing" textLength="97" x="1495" y="947.3477">VPCピアリング</text><path d="M1435,829.0801 L1445,829.0801 C1460,829.0801 1460,942.0566 1475,942.0566 L1485,942.0566 " fill="none" style="stroke:#A80036;stroke-width:1.0;"/><path d="M1259,716.1035 L1269,716.1035 C1284,716.1035 1284,829.0801 1299,829.0801 L1309,829.0801 " fill="none" style="stroke:#A80036;stroke-width:1.0;"/><rect fill="#FEFECE" filter="url(#f1vq1us0afmqs1)" height="36.4883" rx="12.5" ry="12.5" style="stroke:#A80036;stroke-width:1.5;" width="82" x="1309" y="867.3242"/><text fill="#000000" font-family="sans-serif" font-size="14" lengthAdjust="spacing" textLength="62" x="1319" y="890.8594">Route 53</text><path d="M1259,716.1035 L1269,716.1035 C1284,716.1035 1284,885.5684 1299,885.5684 L1309,885.5684 " fill="none" style="stroke:#A80036;stroke-width:1.0;"/><path d="M1105,970.3008 L1115,970.3008 C1130,970.3008 1130,716.1035 1145,716.1035 L1155,716.1035 " fill="none" style="stroke:#A80036;stroke-width:1.0;"/><rect fill="#FEFECE" filter="url(#f1vq1us0afmqs1)" height="36.4883" rx="12.5" ry="12.5" style="stroke:#A80036;stroke-width:1.5;" width="146" x="1155" y="1178.0098"/><text fill="#000000" font-family="sans-serif" font-size="14" lengthAdjust="spacing" textLength="126" x="1165" y="1201.5449">コンピューティング</text><rect fill="#FEFECE" filter="url(#f1vq1us0afmqs1)" height="36.4883" rx="12.5" ry="12.5" style="stroke:#A80036;stroke-width:1.5;" width="47" x="1351" y="1008.5449"/><text fill="#000000" font-family="sans-serif" font-size="14" lengthAdjust="spacing" textLength="27" x="1361" y="1032.0801">EC2</text><rect fill="#FEFECE" filter="url(#f1vq1us0afmqs1)" height="36.4883" rx="12.5" ry="12.5" style="stroke:#A80036;stroke-width:1.5;" width="146" x="1448" y="980.3008"/><text fill="#000000" font-family="sans-serif" font-size="14" lengthAdjust="spacing" textLength="126" x="1458" y="1003.8359">インスタンスストア</text><path d="M1398,1026.7891 L1408,1026.7891 C1423,1026.7891 1423,998.5449 1438,998.5449 L1448,998.5449 " fill="none" style="stroke:#A80036;stroke-width:1.0;"/><rect fill="#FEFECE" filter="url(#f1vq1us0afmqs1)" height="36.4883" rx="12.5" ry="12.5" style="stroke:#A80036;stroke-width:1.5;" width="46" x="1448" y="1036.7891"/><text fill="#000000" font-family="sans-serif" font-size="14" lengthAdjust="spacing" textLength="26" x="1458" y="1060.3242">AMI</text><path d="M1398,1026.7891 L1408,1026.7891 C1423,1026.7891 1423,1055.0332 1438,1055.0332 L1448,1055.0332 " fill="none" style="stroke:#A80036;stroke-width:1.0;"/><path d="M1301,1196.2539 L1311,1196.2539 C1326,1196.2539 1326,1026.7891 1341,1026.7891 L1351,1026.7891 " fill="none" style="stroke:#A80036;stroke-width:1.0;"/><rect fill="#FEFECE" filter="url(#f1vq1us0afmqs1)" height="36.4883" rx="12.5" ry="12.5" style="stroke:#A80036;stroke-width:1.5;" width="132" x="1351" y="1121.5215"/><text fill="#000000" font-family="sans-serif" font-size="14" lengthAdjust="spacing" textLength="112" x="1361" y="1145.0566">スケーラビリティ</text><rect fill="#FEFECE" filter="url(#f1vq1us0afmqs1)" height="36.4883" rx="12.5" ry="12.5" style="stroke:#A80036;stroke-width:1.5;" width="43" x="1533" y="1093.2773"/><text fill="#000000" font-family="sans-serif" font-size="14" lengthAdjust="spacing" textLength="23" x="1543" y="1116.8125">ELB</text><path d="M1483,1139.7656 L1493,1139.7656 C1508,1139.7656 1508,1111.5215 1523,1111.5215 L1533,1111.5215 " fill="none" style="stroke:#A80036;stroke-width:1.0;"/><rect fill="#FEFECE" filter="url(#f1vq1us0afmqs1)" height="36.4883" rx="12.5" ry="12.5" style="stroke:#A80036;stroke-width:1.5;" width="106" x="1533" y="1149.7656"/><text fill="#000000" font-family="sans-serif" font-size="14" lengthAdjust="spacing" textLength="86" x="1543" y="1173.3008">Auto Scaling</text><path d="M1483,1139.7656 L1493,1139.7656 C1508,1139.7656 1508,1168.0098 1523,1168.0098 L1533,1168.0098 " fill="none" style="stroke:#A80036;stroke-width:1.0;"/><path d="M1301,1196.2539 L1311,1196.2539 C1326,1196.2539 1326,1139.7656 1341,1139.7656 L1351,1139.7656 " fill="none" style="stroke:#A80036;stroke-width:1.0;"/><rect fill="#FEFECE" filter="url(#f1vq1us0afmqs1)" height="36.4883" rx="12.5" ry="12.5" style="stroke:#A80036;stroke-width:1.5;" width="209" x="1351" y="1262.7422"/><text fill="#000000" font-family="sans-serif" font-size="14" lengthAdjust="spacing" textLength="189" x="1361" y="1286.2773">メッセージング/キューイング</text><rect fill="#FEFECE" filter="url(#f1vq1us0afmqs1)" height="36.4883" rx="12.5" ry="12.5" style="stroke:#A80036;stroke-width:1.5;" width="202" x="1610" y="1206.2539"/><text fill="#000000" font-family="sans-serif" font-size="14" lengthAdjust="spacing" textLength="182" x="1620" y="1229.7891">モノリスとマイクロサービス</text><path d="M1560,1280.9863 L1570,1280.9863 C1585,1280.9863 1585,1224.498 1600,1224.498 L1610,1224.498 " fill="none" style="stroke:#A80036;stroke-width:1.0;"/><rect fill="#FEFECE" filter="url(#f1vq1us0afmqs1)" height="36.4883" rx="12.5" ry="12.5" style="stroke:#A80036;stroke-width:1.5;" width="46" x="1610" y="1262.7422"/><text fill="#000000" font-family="sans-serif" font-size="14" lengthAdjust="spacing" textLength="26" x="1620" y="1286.2773">SNS</text><path d="M1560,1280.9863 L1570,1280.9863 C1585,1280.9863 1585,1280.9863 1600,1280.9863 L1610,1280.9863 " fill="none" style="stroke:#A80036;stroke-width:1.0;"/><rect fill="#FEFECE" filter="url(#f1vq1us0afmqs1)" height="36.4883" rx="12.5" ry="12.5" style="stroke:#A80036;stroke-width:1.5;" width="47" x="1610" y="1319.2305"/><text fill="#000000" font-family="sans-serif" font-size="14" lengthAdjust="spacing" textLength="27" x="1620" y="1342.7656">SQS</text><path d="M1560,1280.9863 L1570,1280.9863 C1585,1280.9863 1585,1337.4746 1600,1337.4746 L1610,1337.4746 " fill="none" style="stroke:#A80036;stroke-width:1.0;"/><path d="M1301,1196.2539 L1311,1196.2539 C1326,1196.2539 1326,1280.9863 1341,1280.9863 L1351,1280.9863 " fill="none" style="stroke:#A80036;stroke-width:1.0;"/><rect fill="#FEFECE" filter="url(#f1vq1us0afmqs1)" height="36.4883" rx="12.5" ry="12.5" style="stroke:#A80036;stroke-width:1.5;" width="46" x="1351" y="1319.2305"/><text fill="#000000" font-family="sans-serif" font-size="14" lengthAdjust="spacing" textLength="26" x="1361" y="1342.7656">ECS</text><path d="M1301,1196.2539 L1311,1196.2539 C1326,1196.2539 1326,1337.4746 1341,1337.4746 L1351,1337.4746 " fill="none" style="stroke:#A80036;stroke-width:1.0;"/><rect fill="#FEFECE" filter="url(#f1vq1us0afmqs1)" height="36.4883" rx="12.5" ry="12.5" style="stroke:#A80036;stroke-width:1.5;" width="74" x="1351" y="1375.7188"/><text fill="#000000" font-family="sans-serif" font-size="14" lengthAdjust="spacing" textLength="54" x="1361" y="1399.2539">Lambda</text><path d="M1301,1196.2539 L1311,1196.2539 C1326,1196.2539 1326,1393.9629 1341,1393.9629 L1351,1393.9629 " fill="none" style="stroke:#A80036;stroke-width:1.0;"/><path d="M1105,970.3008 L1115,970.3008 C1130,970.3008 1130,1196.2539 1145,1196.2539 L1155,1196.2539 " fill="none" style="stroke:#A80036;stroke-width:1.0;"/><rect fill="#FEFECE" filter="url(#f1vq1us0afmqs1)" height="36.4883" rx="12.5" ry="12.5" style="stroke:#A80036;stroke-width:1.5;" width="90" x="1155" y="1488.6953"/><text fill="#000000" font-family="sans-serif" font-size="14" lengthAdjust="spacing" textLength="70" x="1165" y="1512.2305">ストレージ</text><rect fill="#FEFECE" filter="url(#f1vq1us0afmqs1)" height="36.4883" rx="12.5" ry="12.5" style="stroke:#A80036;stroke-width:1.5;" width="44" x="1295" y="1432.207"/><text fill="#000000" font-family="sans-serif" font-size="14" lengthAdjust="spacing" textLength="24" x="1305" y="1455.7422">EBS</text><path d="M1245,1506.9395 L1255,1506.9395 C1270,1506.9395 1270,1450.4512 1285,1450.4512 L1295,1450.4512 " fill="none" style="stroke:#A80036;stroke-width:1.0;"/><rect fill="#FEFECE" filter="url(#f1vq1us0afmqs1)" height="36.4883" rx="12.5" ry="12.5" style="stroke:#A80036;stroke-width:1.5;" width="37" x="1295" y="1488.6953"/><text fill="#000000" font-family="sans-serif" font-size="14" lengthAdjust="spacing" textLength="17" x="1305" y="1512.2305">S3</text><path d="M1245,1506.9395 L1255,1506.9395 C1270,1506.9395 1270,1506.9395 1285,1506.9395 L1295,1506.9395 " fill="none" style="stroke:#A80036;stroke-width:1.0;"/><rect fill="#FEFECE" filter="url(#f1vq1us0afmqs1)" height="36.4883" rx="12.5" ry="12.5" style="stroke:#A80036;stroke-width:1.5;" width="44" x="1295" y="1545.1836"/><text fill="#000000" font-family="sans-serif" font-size="14" lengthAdjust="spacing" textLength="24" x="1305" y="1568.7188">EFS</text><path d="M1245,1506.9395 L1255,1506.9395 C1270,1506.9395 1270,1563.4277 1285,1563.4277 L1295,1563.4277 " fill="none" style="stroke:#A80036;stroke-width:1.0;"/><path d="M1105,970.3008 L1115,970.3008 C1130,970.3008 1130,1506.9395 1145,1506.9395 L1155,1506.9395 " fill="none" style="stroke:#A80036;stroke-width:1.0;"/><rect fill="#FEFECE" filter="url(#f1vq1us0afmqs1)" height="36.4883" rx="12.5" ry="12.5" style="stroke:#A80036;stroke-width:1.5;" width="104" x="1155" y="1686.4043"/><text fill="#000000" font-family="sans-serif" font-size="14" lengthAdjust="spacing" textLength="84" x="1165" y="1709.9395">データベース</text><rect fill="#FEFECE" filter="url(#f1vq1us0afmqs1)" height="36.4883" rx="12.5" ry="12.5" style="stroke:#A80036;stroke-width:1.5;" width="47" x="1309" y="1601.6719"/><text fill="#000000" font-family="sans-serif" font-size="14" lengthAdjust="spacing" textLength="27" x="1319" y="1625.207">RDS</text><path d="M1259,1704.6484 L1269,1704.6484 C1284,1704.6484 1284,1619.916 1299,1619.916 L1309,1619.916 " fill="none" style="stroke:#A80036;stroke-width:1.0;"/><rect fill="#FEFECE" filter="url(#f1vq1us0afmqs1)" height="36.4883" rx="12.5" ry="12.5" style="stroke:#A80036;stroke-width:1.5;" width="68" x="1309" y="1658.1602"/><text fill="#000000" font-family="sans-serif" font-size="14" lengthAdjust="spacing" textLength="48" x="1319" y="1681.6953">Aurora</text><path d="M1259,1704.6484 L1269,1704.6484 C1284,1704.6484 1284,1676.4043 1299,1676.4043 L1309,1676.4043 " fill="none" style="stroke:#A80036;stroke-width:1.0;"/><rect fill="#FEFECE" filter="url(#f1vq1us0afmqs1)" height="36.4883" rx="12.5" ry="12.5" style="stroke:#A80036;stroke-width:1.5;" width="76" x="1309" y="1714.6484"/><text fill="#000000" font-family="sans-serif" font-size="14" lengthAdjust="spacing" textLength="56" x="1319" y="1738.1836">Redshift</text><path d="M1259,1704.6484 L1269,1704.6484 C1284,1704.6484 1284,1732.8926 1299,1732.8926 L1309,1732.8926 " fill="none" style="stroke:#A80036;stroke-width:1.0;"/><rect fill="#FEFECE" filter="url(#f1vq1us0afmqs1)" height="36.4883" rx="12.5" ry="12.5" style="stroke:#A80036;stroke-width:1.5;" width="103" x="1309" y="1771.1367"/><text fill="#000000" font-family="sans-serif" font-size="14" lengthAdjust="spacing" textLength="83" x="1319" y="1794.6719">DynanmoDB</text><path d="M1259,1704.6484 L1269,1704.6484 C1284,1704.6484 1284,1789.3809 1299,1789.3809 L1309,1789.3809 " fill="none" style="stroke:#A80036;stroke-width:1.0;"/><path d="M1105,970.3008 L1115,970.3008 C1130,970.3008 1130,1704.6484 1145,1704.6484 L1155,1704.6484 " fill="none" style="stroke:#A80036;stroke-width:1.0;"/><rect fill="#FEFECE" filter="url(#f1vq1us0afmqs1)" height="36.4883" rx="12.5" ry="12.5" style="stroke:#A80036;stroke-width:1.5;" width="139" x="1155" y="1827.625"/><text fill="#000000" font-family="sans-serif" font-size="14" lengthAdjust="spacing" textLength="119" x="1165" y="1851.1602">モニタリング/分析</text><rect fill="#FEFECE" filter="url(#f1vq1us0afmqs1)" height="36.4883" rx="12.5" ry="12.5" style="stroke:#A80036;stroke-width:1.5;" width="102" x="1344" y="1827.625"/><text fill="#000000" font-family="sans-serif" font-size="14" lengthAdjust="spacing" textLength="82" x="1354" y="1851.1602">CloudWatch</text><path d="M1294,1845.8691 L1304,1845.8691 C1319,1845.8691 1319,1845.8691 1334,1845.8691 L1344,1845.8691 " fill="none" style="stroke:#A80036;stroke-width:1.0;"/><path d="M1105,970.3008 L1115,970.3008 C1130,970.3008 1130,1845.8691 1145,1845.8691 L1155,1845.8691 " fill="none" style="stroke:#A80036;stroke-width:1.0;"/><rect fill="#FEFECE" filter="url(#f1vq1us0afmqs1)" height="36.4883" rx="12.5" ry="12.5" style="stroke:#A80036;stroke-width:1.5;" width="106" x="1155" y="1884.1133"/><text fill="#000000" font-family="sans-serif" font-size="14" lengthAdjust="spacing" textLength="86" x="1165" y="1907.6484">AWSへの移行</text><path d="M1105,970.3008 L1115,970.3008 C1130,970.3008 1130,1902.3574 1145,1902.3574 L1155,1902.3574 " fill="none" style="stroke:#A80036;stroke-width:1.0;"/><path d="M896,970.3008 L906,970.3008 C921,970.3008 921,970.3008 936,970.3008 L946,970.3008 " fill="none" style="stroke:#A80036;stroke-width:1.0;"/><rect fill="#FFA500" filter="url(#f1vq1us0afmqs1)" height="36.4883" rx="12.5" ry="12.5" style="stroke:#A80036;stroke-width:1.5;" width="173" x="527" y="362.4414"/><text fill="#000000" font-family="sans-serif" font-size="14" lengthAdjust="spacing" textLength="153" x="537" y="385.9766">クラウドの概念（26%）</text><rect fill="#FEFECE" filter="url(#f1vq1us0afmqs1)" height="36.4883" rx="12.5" ry="12.5" style="stroke:#A80036;stroke-width:1.5;" width="230" x="247" y="305.9531"/><text fill="#000000" font-family="sans-serif" font-size="14" lengthAdjust="spacing" textLength="210" x="257" y="329.4883">クラウドコンピューティングとは</text><path d="M527,380.6855 L517,380.6855 C502,380.6855 502,324.1973 487,324.1973 L477,324.1973 " fill="none" style="stroke:#A80036;stroke-width:1.0;"/><rect fill="#FEFECE" filter="url(#f1vq1us0afmqs1)" height="36.4883" rx="12.5" ry="12.5" style="stroke:#A80036;stroke-width:1.5;" width="281" x="196" y="362.4414"/><text fill="#000000" font-family="sans-serif" font-size="14" lengthAdjust="spacing" textLength="261" x="206" y="385.9766">クラウドコンピューティングの6つの利点</text><path d="M527,380.6855 L517,380.6855 C502,380.6855 502,380.6855 487,380.6855 L477,380.6855 " fill="none" style="stroke:#A80036;stroke-width:1.0;"/><rect fill="#FEFECE" filter="url(#f1vq1us0afmqs1)" height="36.4883" rx="12.5" ry="12.5" style="stroke:#A80036;stroke-width:1.5;" width="232" x="245" y="418.9297"/><text fill="#000000" font-family="sans-serif" font-size="14" lengthAdjust="spacing" textLength="212" x="255" y="442.4648">Well-Architectedフレームワーク</text><rect fill="#FEFECE" filter="url(#f1vq1us0afmqs1)" height="36.4883" rx="12.5" ry="12.5" style="stroke:#A80036;stroke-width:1.5;" width="178" x="17" y="418.9297"/><text fill="#000000" font-family="sans-serif" font-size="14" lengthAdjust="spacing" textLength="158" x="27" y="442.4648">11のベストプラクティス</text><path d="M245,437.1738 L235,437.1738 C220,437.1738 220,437.1738 205,437.1738 L195,437.1738 " fill="none" style="stroke:#A80036;stroke-width:1.0;"/><path d="M527,380.6855 L517,380.6855 C502,380.6855 502,437.1738 487,437.1738 L477,437.1738 " fill="none" style="stroke:#A80036;stroke-width:1.0;"/><path d="M750,970.3008 L740,970.3008 C725,970.3008 725,380.6855 710,380.6855 L700,380.6855 " fill="none" style="stroke:#A80036;stroke-width:1.0;"/><rect fill="#FFA500" filter="url(#f1vq1us0afmqs1)" height="36.4883" rx="12.5" ry="12.5" style="stroke:#A80036;stroke-width:1.5;" width="145" x="555" y="689.6152"/><text fill="#000000" font-family="sans-serif" font-size="14" lengthAdjust="spacing" textLength="125" x="565" y="713.1504">料金と請求（16%）</text><rect fill="#FEFECE" filter="url(#f1vq1us0afmqs1)" height="36.4883" rx="12.5" ry="12.5" style="stroke:#A80036;stroke-width:1.5;" width="48" x="457" y="531.9063"/><text fill="#000000" font-family="sans-serif" font-size="14" lengthAdjust="spacing" textLength="28" x="467" y="555.4414">料金</text><rect fill="#FEFECE" filter="url(#f1vq1us0afmqs1)" height="36.4883" rx="12.5" ry="12.5" style="stroke:#A80036;stroke-width:1.5;" width="90" x="317" y="475.418"/><text fill="#000000" font-family="sans-serif" font-size="14" lengthAdjust="spacing" textLength="70" x="327" y="498.9531">無料利用枠</text><path d="M457,550.1504 L447,550.1504 C432,550.1504 432,493.6621 417,493.6621 L407,493.6621 " fill="none" style="stroke:#A80036;stroke-width:1.0;"/><rect fill="#FEFECE" filter="url(#f1vq1us0afmqs1)" height="36.4883" rx="12.5" ry="12.5" style="stroke:#A80036;stroke-width:1.5;" width="132" x="275" y="531.9063"/><text fill="#000000" font-family="sans-serif" font-size="14" lengthAdjust="spacing" textLength="112" x="285" y="555.4414">料金体系の仕組み</text><path d="M457,550.1504 L447,550.1504 C432,550.1504 432,550.1504 417,550.1504 L407,550.1504 " fill="none" style="stroke:#A80036;stroke-width:1.0;"/><rect fill="#FEFECE" filter="url(#f1vq1us0afmqs1)" height="36.4883" rx="12.5" ry="12.5" style="stroke:#A80036;stroke-width:1.5;" width="118" x="289" y="588.3945"/><text fill="#000000" font-family="sans-serif" font-size="14" lengthAdjust="spacing" textLength="98" x="299" y="611.9297">料金計算ツール</text><path d="M457,550.1504 L447,550.1504 C432,550.1504 432,606.6387 417,606.6387 L407,606.6387 " fill="none" style="stroke:#A80036;stroke-width:1.0;"/><path d="M555,707.8594 L545,707.8594 C530,707.8594 530,550.1504 515,550.1504 L505,550.1504 " fill="none" style="stroke:#A80036;stroke-width:1.0;"/><rect fill="#FEFECE" filter="url(#f1vq1us0afmqs1)" height="36.4883" rx="12.5" ry="12.5" style="stroke:#A80036;stroke-width:1.5;" width="286" x="219" y="644.8828"/><text fill="#000000" font-family="sans-serif" font-size="14" lengthAdjust="spacing" textLength="266" x="229" y="668.418">一括請求 (コンソリデーティッドビリング)</text><rect fill="#FEFECE" filter="url(#f1vq1us0afmqs1)" height="36.4883" rx="12.5" ry="12.5" style="stroke:#A80036;stroke-width:1.5;" width="155" x="14" y="588.3945"/><text fill="#000000" font-family="sans-serif" font-size="14" lengthAdjust="spacing" textLength="135" x="24" y="611.9297">AWS Origanizations</text><path d="M219,663.127 L209,663.127 C194,663.127 194,606.6387 179,606.6387 L169,606.6387 " fill="none" style="stroke:#A80036;stroke-width:1.0;"/><rect fill="#FEFECE" filter="url(#f1vq1us0afmqs1)" height="36.4883" rx="12.5" ry="12.5" style="stroke:#A80036;stroke-width:1.5;" width="109" x="60" y="644.8828"/><text fill="#000000" font-family="sans-serif" font-size="14" lengthAdjust="spacing" textLength="89" x="70" y="668.418">AWS Budgets</text><path d="M219,663.127 L209,663.127 C194,663.127 194,663.127 179,663.127 L169,663.127 " fill="none" style="stroke:#A80036;stroke-width:1.0;"/><rect fill="#FEFECE" filter="url(#f1vq1us0afmqs1)" height="36.4883" rx="12.5" ry="12.5" style="stroke:#A80036;stroke-width:1.5;" width="148" x="21" y="701.3711"/><text fill="#000000" font-family="sans-serif" font-size="14" lengthAdjust="spacing" textLength="128" x="31" y="724.9063">AWS Cost Explorer</text><path d="M219,663.127 L209,663.127 C194,663.127 194,719.6152 179,719.6152 L169,719.6152 " fill="none" style="stroke:#A80036;stroke-width:1.0;"/><path d="M555,707.8594 L545,707.8594 C530,707.8594 530,663.127 515,663.127 L505,663.127 " fill="none" style="stroke:#A80036;stroke-width:1.0;"/><rect fill="#FEFECE" filter="url(#f1vq1us0afmqs1)" height="36.4883" rx="12.5" ry="12.5" style="stroke:#A80036;stroke-width:1.5;" width="118" x="387" y="802.5918"/><text fill="#000000" font-family="sans-serif" font-size="14" lengthAdjust="spacing" textLength="98" x="397" y="826.127">サポートプラン</text><rect fill="#FEFECE" filter="url(#f1vq1us0afmqs1)" height="52.9766" rx="12.5" ry="12.5" style="stroke:#A80036;stroke-width:1.5;" width="143" x="194" y="757.8594"/><text fill="#000000" font-family="sans-serif" font-size="14" lengthAdjust="spacing" textLength="93" x="204" y="781.3945">AWS Personal</text><text fill="#000000" font-family="sans-serif" font-size="14" lengthAdjust="spacing" textLength="123" x="204" y="797.8828">Health Dashboard</text><path d="M387,820.8359 L377,820.8359 C362,820.8359 362,784.3477 347,784.3477 L337,784.3477 " fill="none" style="stroke:#A80036;stroke-width:1.0;"/><rect fill="#FEFECE" filter="url(#f1vq1us0afmqs1)" height="52.9766" rx="12.5" ry="12.5" style="stroke:#A80036;stroke-width:1.5;" width="160" x="177" y="830.8359"/><text fill="#000000" font-family="sans-serif" font-size="14" lengthAdjust="spacing" textLength="140" x="187" y="854.3711">テクニカルアカウント</text><text fill="#000000" font-family="sans-serif" font-size="14" lengthAdjust="spacing" textLength="129" x="187" y="870.8594">マネージャー (TAM)</text><path d="M387,820.8359 L377,820.8359 C362,820.8359 362,857.3242 347,857.3242 L337,857.3242 " fill="none" style="stroke:#A80036;stroke-width:1.0;"/><path d="M555,707.8594 L545,707.8594 C530,707.8594 530,820.8359 515,820.8359 L505,820.8359 " fill="none" style="stroke:#A80036;stroke-width:1.0;"/><rect fill="#FEFECE" filter="url(#f1vq1us0afmqs1)" height="36.4883" rx="12.5" ry="12.5" style="stroke:#A80036;stroke-width:1.5;" width="137" x="368" y="903.8125"/><text fill="#000000" font-family="sans-serif" font-size="14" lengthAdjust="spacing" textLength="117" x="378" y="927.3477">AWS Marketplace</text><path d="M555,707.8594 L545,707.8594 C530,707.8594 530,922.0566 515,922.0566 L505,922.0566 " fill="none" style="stroke:#A80036;stroke-width:1.0;"/><path d="M750,970.3008 L740,970.3008 C725,970.3008 725,707.8594 710,707.8594 L700,707.8594 " fill="none" style="stroke:#A80036;stroke-width:1.0;"/><rect fill="#FFA500" filter="url(#f1vq1us0afmqs1)" height="52.9766" rx="12.5" ry="12.5" style="stroke:#A80036;stroke-width:1.5;" width="187" x="513" y="1270.9863"/><text fill="#000000" font-family="sans-serif" font-size="14" lengthAdjust="spacing" textLength="98" x="523" y="1294.5215">セキュリティと</text><text fill="#000000" font-family="sans-serif" font-size="14" lengthAdjust="spacing" textLength="167" x="523" y="1311.0098">コンプライアンス（25%）</text><rect fill="#FEFECE" filter="url(#f1vq1us0afmqs1)" height="36.4883" rx="12.5" ry="12.5" style="stroke:#A80036;stroke-width:1.5;" width="118" x="345" y="960.3008"/><text fill="#000000" font-family="sans-serif" font-size="14" lengthAdjust="spacing" textLength="98" x="355" y="983.8359">責任共有モデル</text><path d="M513,1297.4746 L503,1297.4746 C488,1297.4746 488,978.5449 473,978.5449 L463,978.5449 " fill="none" style="stroke:#A80036;stroke-width:1.0;"/><rect fill="#FEFECE" filter="url(#f1vq1us0afmqs1)" height="36.4883" rx="12.5" ry="12.5" style="stroke:#A80036;stroke-width:1.5;" width="151" x="312" y="1016.7891"/><text fill="#000000" font-family="sans-serif" font-size="14" lengthAdjust="spacing" textLength="131" x="322" y="1040.3242">AWS Organizations</text><rect fill="#FEFECE" filter="url(#f1vq1us0afmqs1)" height="36.4883" rx="12.5" ry="12.5" style="stroke:#A80036;stroke-width:1.5;" width="252" x="10" y="1016.7891"/><text fill="#000000" font-family="sans-serif" font-size="14" lengthAdjust="spacing" textLength="232" x="20" y="1040.3242">サービスコントロールポリシー(SCP)</text><path d="M312,1035.0332 L302,1035.0332 C287,1035.0332 287,1035.0332 272,1035.0332 L262,1035.0332 " fill="none" style="stroke:#A80036;stroke-width:1.0;"/><path d="M513,1297.4746 L503,1297.4746 C488,1297.4746 488,1035.0332 473,1035.0332 L463,1035.0332 " fill="none" style="stroke:#A80036;stroke-width:1.0;"/><rect fill="#FEFECE" filter="url(#f1vq1us0afmqs1)" height="36.4883" rx="12.5" ry="12.5" style="stroke:#A80036;stroke-width:1.5;" width="46" x="417" y="1101.5215"/><text fill="#000000" font-family="sans-serif" font-size="14" lengthAdjust="spacing" textLength="26" x="427" y="1125.0566">IAM</text><rect fill="#FEFECE" filter="url(#f1vq1us0afmqs1)" height="36.4883" rx="12.5" ry="12.5" style="stroke:#A80036;stroke-width:1.5;" width="130" x="237" y="1073.2773"/><text fill="#000000" font-family="sans-serif" font-size="14" lengthAdjust="spacing" textLength="110" x="247" y="1096.8125">IAMエンティティ</text><path d="M417,1119.7656 L407,1119.7656 C392,1119.7656 392,1091.5215 377,1091.5215 L367,1091.5215 " fill="none" style="stroke:#A80036;stroke-width:1.0;"/><rect fill="#FEFECE" filter="url(#f1vq1us0afmqs1)" height="36.4883" rx="12.5" ry="12.5" style="stroke:#A80036;stroke-width:1.5;" width="102" x="265" y="1129.7656"/><text fill="#000000" font-family="sans-serif" font-size="14" lengthAdjust="spacing" textLength="82" x="275" y="1153.3008">IAMポリシー</text><path d="M417,1119.7656 L407,1119.7656 C392,1119.7656 392,1148.0098 377,1148.0098 L367,1148.0098 " fill="none" style="stroke:#A80036;stroke-width:1.0;"/><path d="M513,1297.4746 L503,1297.4746 C488,1297.4746 488,1119.7656 473,1119.7656 L463,1119.7656 " fill="none" style="stroke:#A80036;stroke-width:1.0;"/><rect fill="#FEFECE" filter="url(#f1vq1us0afmqs1)" height="36.4883" rx="12.5" ry="12.5" style="stroke:#A80036;stroke-width:1.5;" width="76" x="387" y="1214.498"/><text fill="#000000" font-family="sans-serif" font-size="14" lengthAdjust="spacing" textLength="56" x="397" y="1238.0332">妨害対策</text><rect fill="#FEFECE" filter="url(#f1vq1us0afmqs1)" height="36.4883" rx="12.5" ry="12.5" style="stroke:#A80036;stroke-width:1.5;" width="96" x="241" y="1186.2539"/><text fill="#000000" font-family="sans-serif" font-size="14" lengthAdjust="spacing" textLength="76" x="251" y="1209.7891">AWS Shield</text><path d="M387,1232.7422 L377,1232.7422 C362,1232.7422 362,1204.498 347,1204.498 L337,1204.498 " fill="none" style="stroke:#A80036;stroke-width:1.0;"/><rect fill="#FEFECE" filter="url(#f1vq1us0afmqs1)" height="36.4883" rx="12.5" ry="12.5" style="stroke:#A80036;stroke-width:1.5;" width="84" x="253" y="1242.7422"/><text fill="#000000" font-family="sans-serif" font-size="14" lengthAdjust="spacing" textLength="64" x="263" y="1266.2773">AWS WAF</text><path d="M387,1232.7422 L377,1232.7422 C362,1232.7422 362,1260.9863 347,1260.9863 L337,1260.9863 " fill="none" style="stroke:#A80036;stroke-width:1.0;"/><path d="M513,1297.4746 L503,1297.4746 C488,1297.4746 488,1232.7422 473,1232.7422 L463,1232.7422 " fill="none" style="stroke:#A80036;stroke-width:1.0;"/><rect fill="#FEFECE" filter="url(#f1vq1us0afmqs1)" height="36.4883" rx="12.5" ry="12.5" style="stroke:#A80036;stroke-width:1.5;" width="132" x="331" y="1335.7188"/><text fill="#000000" font-family="sans-serif" font-size="14" lengthAdjust="spacing" textLength="112" x="341" y="1359.2539">コンプライアンス</text><rect fill="#FEFECE" filter="url(#f1vq1us0afmqs1)" height="36.4883" rx="12.5" ry="12.5" style="stroke:#A80036;stroke-width:1.5;" width="108" x="173" y="1299.2305"/><text fill="#000000" font-family="sans-serif" font-size="14" lengthAdjust="spacing" textLength="88" x="183" y="1322.7656">AWS Aritifact</text><path d="M331,1353.9629 L321,1353.9629 C306,1353.9629 306,1317.4746 291,1317.4746 L281,1317.4746 " fill="none" style="stroke:#A80036;stroke-width:1.0;"/><rect fill="#FEFECE" filter="url(#f1vq1us0afmqs1)" height="52.9766" rx="12.5" ry="12.5" style="stroke:#A80036;stroke-width:1.5;" width="188" x="93" y="1355.7188"/><text fill="#000000" font-family="sans-serif" font-size="14" lengthAdjust="spacing" textLength="70" x="103" y="1379.2539">カスタマー</text><text fill="#000000" font-family="sans-serif" font-size="14" lengthAdjust="spacing" textLength="168" x="103" y="1395.7422">コンプライアンスセンター</text><path d="M331,1353.9629 L321,1353.9629 C306,1353.9629 306,1382.207 291,1382.207 L281,1382.207 " fill="none" style="stroke:#A80036;stroke-width:1.0;"/><path d="M513,1297.4746 L503,1297.4746 C488,1297.4746 488,1353.9629 473,1353.9629 L463,1353.9629 " fill="none" style="stroke:#A80036;stroke-width:1.0;"/><rect fill="#FEFECE" filter="url(#f1vq1us0afmqs1)" height="36.4883" rx="12.5" ry="12.5" style="stroke:#A80036;stroke-width:1.5;" width="48" x="415" y="1513.4277"/><text fill="#000000" font-family="sans-serif" font-size="14" lengthAdjust="spacing" textLength="28" x="425" y="1536.9629">監視</text><rect fill="#FEFECE" filter="url(#f1vq1us0afmqs1)" height="36.4883" rx="12.5" ry="12.5" style="stroke:#A80036;stroke-width:1.5;" width="92" x="273" y="1428.6953"/><text fill="#000000" font-family="sans-serif" font-size="14" lengthAdjust="spacing" textLength="72" x="283" y="1452.2305">CloudTrail</text><path d="M415,1531.6719 L405,1531.6719 C390,1531.6719 390,1446.9395 375,1446.9395 L365,1446.9395 " fill="none" style="stroke:#A80036;stroke-width:1.0;"/><rect fill="#FEFECE" filter="url(#f1vq1us0afmqs1)" height="36.4883" rx="12.5" ry="12.5" style="stroke:#A80036;stroke-width:1.5;" width="129" x="236" y="1485.1836"/><text fill="#000000" font-family="sans-serif" font-size="14" lengthAdjust="spacing" textLength="109" x="246" y="1508.7188">Trusted Advisor</text><path d="M415,1531.6719 L405,1531.6719 C390,1531.6719 390,1503.4277 375,1503.4277 L365,1503.4277 " fill="none" style="stroke:#A80036;stroke-width:1.0;"/><rect fill="#FEFECE" filter="url(#f1vq1us0afmqs1)" height="36.4883" rx="12.5" ry="12.5" style="stroke:#A80036;stroke-width:1.5;" width="84" x="281" y="1541.6719"/><text fill="#000000" font-family="sans-serif" font-size="14" lengthAdjust="spacing" textLength="64" x="291" y="1565.207">Inspector</text><path d="M415,1531.6719 L405,1531.6719 C390,1531.6719 390,1559.916 375,1559.916 L365,1559.916 " fill="none" style="stroke:#A80036;stroke-width:1.0;"/><rect fill="#FEFECE" filter="url(#f1vq1us0afmqs1)" height="36.4883" rx="12.5" ry="12.5" style="stroke:#A80036;stroke-width:1.5;" width="48" x="317" y="1598.1602"/><text fill="#000000" font-family="sans-serif" font-size="14" lengthAdjust="spacing" textLength="28" x="327" y="1621.6953">SMS</text><path d="M415,1531.6719 L405,1531.6719 C390,1531.6719 390,1616.4043 375,1616.4043 L365,1616.4043 " fill="none" style="stroke:#A80036;stroke-width:1.0;"/><path d="M513,1297.4746 L503,1297.4746 C488,1297.4746 488,1531.6719 473,1531.6719 L463,1531.6719 " fill="none" style="stroke:#A80036;stroke-width:1.0;"/><path d="M750,970.3008 L740,970.3008 C725,970.3008 725,1297.4746 710,1297.4746 L700,1297.4746 " fill="none" style="stroke:#A80036;stroke-width:1.0;"/><!--MD5=[eacadb6f6be31fa91274428e8ecc34f1]
@startmindmap
-[#Pink] AWSクラウド\nプラクティショナー

- -[#Orange] クラウドの概念（26%）
- - - クラウドコンピューティングとは
- - - クラウドコンピューティングの6つの利点
- - - Well-Architectedフレームワーク
- - - - 11のベストプラクティス

- -[#Orange] 料金と請求（16%）
- - - 料金
- - - - 無料利用枠
- - - - 料金体系の仕組み
- - - - 料金計算ツール

- - - 一括請求 (コンソリデーティッドビリング)
- - - - AWS Origanizations
- - - - AWS Budgets
- - - - AWS Cost Explorer

- - - サポートプラン
- - - - AWS Personal\nHealth Dashboard
- - - - テクニカルアカウント\nマネージャー (TAM)
- - - AWS Marketplace

- -[#Orange] セキュリティと\nコンプライアンス（25%）
- - - 責任共有モデル

- - - AWS Organizations
- - - - サービスコントロールポリシー(SCP)

- - - IAM
- - - - IAMエンティティ
- - - - IAMポリシー

- - - 妨害対策
- - - - AWS Shield
- - - - AWS WAF

- - - コンプライアンス
- - - - AWS Aritifact
- - - - カスタマー\nコンプライアンスセンター

- - - 監視
- - - - CloudTrail
- - - - Trusted Advisor
- - - - Inspector
- - - - SMS

++[#Orange] テクノロジー（33%）
+++ クローバルインフラクトラクチャ
++++ リージョン
++++ アベイラビリティゾーン
++++ エッジロケーション
+++++ CloudFront

+++ プロビジョニング
++++ マネージメントコンソール
++++ コマンドラインインターフェース(CLI)
++++ CloudFormation
++++ Elastic Beanstalk
++++ OpsWorks

+++ ネットワーク
++++ VPC
++++ サブネット
++++ ネットワークACL
++++ セキュリティグループ
++++ 外部NWとの接続
+++++ Internet Gateway
+++++ NAT Gateway
+++++ 仮想プライベートゲートウェイ
+++++ Direct Connect
+++++ VPCピアリング
++++ Route 53

+++ コンピューティング
++++ EC2
+++++ インスタンスストア
+++++ AMI
++++ スケーラビリティ
+++++ ELB
+++++ Auto Scaling

++++ メッセージング/キューイング
+++++ モノリスとマイクロサービス
+++++ SNS
+++++ SQS

++++ ECS
++++ Lambda

+++ ストレージ
++++ EBS
++++ S3
++++ EFS

+++ データベース
++++ RDS
++++ Aurora
++++ Redshift
++++ DynanmoDB

+++ モニタリング/分析
++++ CloudWatch

+++ AWSへの移行

@endmindmap

PlantUML version 1.2021.00(Sun Jan 10 19:25:05 JST 2021)
(GPL source distribution)
Java Runtime: OpenJDK Runtime Environment
JVM: OpenJDK 64-Bit Server VM
Default Encoding: UTF-8
Language: ja
Country: JP
--></g></svg>